<?xml version="1.0" encoding="utf-8"?>
<!-- Generator: Adobe Illustrator 22.1.0, SVG Export Plug-In . SVG Version: 6.00 Build 0)  -->
<svg version="1.1" id="_x37_80c6f38-12e9-4526-8343-95ef18389740"
	 xmlns="http://www.w3.org/2000/svg" xmlns:xlink="http://www.w3.org/1999/xlink" x="0px" y="0px" viewBox="0 0 971.4 662"
	 style="enable-background:new 0 0 971.4 662;" xml:space="preserve">
<style type="text/css">
	.st0{fill:none;}
	.st1{opacity:0.7;}
	.st2{fill:url(#SVGID_1_);}
	.st3{fill:#0C344B;}
	.st4{opacity:0.1;enable-background:new    ;}
	.st5{fill:#E0E0E0;}
	.st6{fill:url(#SVGID_2_);}
	.st7{fill:#3CB670;}
	.st8{fill:#72351C;}
	.st9{fill:#FDA57D;}
	.st10{fill:url(#SVGID_3_);}
	.st11{fill:#535461;}
	.st12{fill:#EEEEEE;}
	.st13{opacity:0.6;enable-background:new    ;}
	.st14{fill:#BAEF48;}
	.st15{fill:#8FB837;}
	.st16{fill:#082333;}
	.st17{opacity:0.3;fill:none;stroke:#535461;stroke-miterlimit:10;enable-background:new    ;}
	.st18{fill-rule:evenodd;clip-rule:evenodd;fill:#FFFFFF;}
	.st19{fill:#6A1577;}
	.st20{fill:#8E77FF;}
	.st21{clip-path:url(#SVGID_5_);}
	.st22{fill:#547DBF;}
	.st23{fill:url(#SVGID_6_);}
	.st24{fill:url(#SVGID_7_);}
	.st25{fill:#2D3079;fill-opacity:0.1;}
	.st26{fill:#FFCE40;}
	.st27{fill:url(#SVGID_8_);}
	.st28{fill:#DB4436;}
	.st29{fill:url(#SVGID_9_);}
	.st30{fill:url(#SVGID_10_);}
	.st31{fill:#3E2723;fill-opacity:5.000000e-02;}
	.st32{clip-path:url(#SVGID_12_);}
	.st33{clip-path:url(#SVGID_15_);}
	.st34{clip-path:url(#SVGID_16_);}
	.st35{clip-path:url(#SVGID_18_);}
	.st36{clip-path:url(#SVGID_20_);}
	.st37{clip-path:url(#SVGID_22_);}
	.st38{fill:#FFFFFF;fill-opacity:0.4;}
	.st39{fill:#262626;fill-opacity:5.000000e-02;}
	.st40{fill:#BE3A26;fill-opacity:5.000000e-02;}
	.st41{fill:#262626;fill-opacity:0.1;}
	.st42{clip-path:url(#SVGID_24_);fill:url(#SVGID_25_);}
	.st43{clip-path:url(#SVGID_27_);}
	.st44{fill:#FFFFFF;fill-opacity:0.2;}
	.st45{fill:url(#SVGID_28_);}
	.st46{opacity:0.54;}
	.st47{clip-path:url(#SVGID_30_);fill:none;}
	.st48{clip-path:url(#SVGID_32_);}
	.st49{clip-path:url(#SVGID_34_);}
	.st50{fill:#FFFFFF;}
	.st51{fill:#6772E5;}
	.st52{opacity:0.54;fill:#FFFFFF;enable-background:new    ;}
	.st53{fill:url(#path-2_2_);}
	.st54{filter:url(#Adobe_OpacityMaskFilter);}
	.st55{mask:url(#mask-3_8_);}
	.st56{fill:#FFA000;}
	.st57{fill:#F57C00;}
	.st58{filter:url(#Adobe_OpacityMaskFilter_1_);}
	.st59{mask:url(#mask-3_7_);}
	.st60{fill:#FFCA28;}
	.st61{filter:url(#Adobe_OpacityMaskFilter_2_);}
	.st62{mask:url(#mask-3_6_);fill:#FFFFFF;fill-opacity:0.2;}
	.st63{filter:url(#Adobe_OpacityMaskFilter_3_);}
	.st64{opacity:0.2;mask:url(#mask-3_5_);fill:#A52714;enable-background:new    ;}
	.st65{fill:url(#path-4_2_);}
	.st66{fill:#FFFFFF;stroke:#FFFFFF;stroke-width:6;stroke-linejoin:round;stroke-miterlimit:10;}
	
		.st67{fill-rule:evenodd;clip-rule:evenodd;fill:#FFFFFF;stroke:#FFFFFF;stroke-width:6;stroke-linejoin:round;stroke-miterlimit:10;}
	.st68{fill:#8166AB;}
	.st69{fill-rule:evenodd;clip-rule:evenodd;fill:#8166AB;}
	.st70{fill:#3B4F59;}
	.st71{clip-path:url(#SVGID_36_);}
	.st72{fill:#F7DF1E;}
	.st73{clip-path:url(#SVGID_36_);fill:#FFFFFF;}
	.st74{fill:#9A4993;}
	.st75{fill:#813084;}
	.st76{fill:#DD0031;}
	.st77{fill:#C3002F;}
	.st78{fill:#007ACC;}
	.st79{fill:#4A4A4A;}
	.st80{fill:#545454;}
	.st81{fill:#BA2BD2;}
</style>
<symbol  id="logo_x5F_dark" viewBox="-208 -68 416 136">
	<path d="M-207.3,15.4c0,29,24.3,52.5,53.3,52.5c16,0,27.4-6.3,36-14.5l-10.2-10.1c-6.1,5.8-14.4,10.3-25.8,10.3
		c-21.1,0-37.6-17-37.6-38.1s16.5-38.1,37.6-38.1c13.7,0,21.5,5.5,26.5,10.5c4.1,4.1,6.8,10,7.8,18H-154v14.3h48.3
		c0.5-2.6,0.8-5.6,0.8-9c0-10.8-2.9-24.1-12.4-33.5C-126.6-31.9-138.4-37-154-37C-183-37-207.3-13.5-207.3,15.4z M-66,30.5
		c-18.7,0-33.9-14.2-33.9-33.8c0-19.5,15.2-33.8,33.9-33.8s33.9,14.3,33.9,33.8C-32.1,16.3-47.3,30.5-66,30.5z M-66-23.7
		c-10.2,0-19.1,8.4-19.1,20.5c0,12.2,8.8,20.5,19.1,20.5c10.2,0,19.1-8.3,19.1-20.5C-46.9-15.3-55.8-23.7-66-23.7z M8,30.5
		c-18.7,0-33.9-14.2-33.9-33.8c0-19.5,15.2-33.8,33.9-33.8S41.9-22.8,41.9-3.3C41.9,16.3,26.7,30.5,8,30.5z M8-23.7
		c-10.2,0-19.1,8.4-19.1,20.5C-11.1,9-2.3,17.3,8,17.3S27.1,9,27.1-3.2C27.1-15.3,18.2-23.7,8-23.7z M98.8,28.5V23h-0.5
		c-3.3,4-9.7,7.6-17.8,7.6c-16.9,0-32.4-14.8-32.4-33.9C48.1-22.2,63.6-37,80.5-37c8.1,0,14.5,3.6,17.8,7.7h0.5v-4.9
		c0-12.9-6.9-19.8-18-19.8c-9.1,0-14.7,6.5-17,12l-12.9-5.4c3.7-9,13.6-20,30-20c17.4,0,32.1,10.2,32.1,35.2v60.7
		C113,28.5,98.8,28.5,98.8,28.5z M81.8-23.7C71.6-23.7,63-15.1,63-3.3c0,11.9,8.6,20.6,18.8,20.6c10.1,0,18-8.7,18-20.6
		C99.9-15.2,91.9-23.7,81.8-23.7z"/>
	<polygon points="138,-35 123.2,-35 123.2,64.3 138,64.3 	"/>
	<path d="M178.7-23.7c-7.6,0-12.9,3.5-16.4,10.2l45.2,18.7L206,9c-2.8,7.6-11.4,21.5-28.9,21.5c-17.4,0-31.9-13.7-31.9-33.8
		c0-18.9,14.3-33.8,33.5-33.8c15.5,0,24.4,9.5,28.2,15l-11.5,7.7C191.5-20,186.3-23.7,178.7-23.7z M177.6,17.5
		c5.9,0,10.9-2.9,12.5-7.2L159.9-2.2C159.5,10.8,170,17.5,177.6,17.5z"/>
	<polygon class="st0" points="-208,-68 208,-68 208,68 -208,68 	"/>
</symbol>
<title>designer</title>
<g class="st1">
	
		<linearGradient id="SVGID_1_" gradientUnits="userSpaceOnUse" x1="979.4298" y1="-75.6" x2="979.4298" y2="16.22" gradientTransform="matrix(1 0 0 -1 -114.28 544)">
		<stop  offset="0" style="stop-color:#808080;stop-opacity:0.25"/>
		<stop  offset="0.54" style="stop-color:#808080;stop-opacity:0.12"/>
		<stop  offset="1" style="stop-color:#808080;stop-opacity:0.1"/>
	</linearGradient>
	<path class="st2" d="M895.5,544.2v-16.4h-82v75.8c0,8.8,7.2,16,16,16h50c8.8,0,16-7.2,16-16v-16.8c11.8,0,21.3-9.5,21.3-21.3
		C916.8,553.7,907.3,544.2,895.5,544.2C895.5,544.2,895.5,544.2,895.5,544.2z M895.5,578.6v-26.2c7.2-0.2,13.3,5.5,13.5,12.8
		c0.2,7.2-5.5,13.3-12.8,13.5C896,578.6,895.7,578.6,895.5,578.6z"/>
</g>
<path class="st3" d="M892.9,546.7c-10.7,0-19.5,8.7-19.5,19.5c0,10.7,8.7,19.5,19.5,19.5c10.7,0,19.5-8.7,19.5-19.5l0,0
	C912.3,555.5,903.6,546.7,892.9,546.7z M892.9,578.2c-6.6,0-12-5.4-12-12s5.4-12,12-12s12,5.4,12,12
	C904.9,572.8,899.5,578.2,892.9,578.2C892.9,578.2,892.9,578.2,892.9,578.2L892.9,578.2z"/>
<path class="st4" d="M892.9,546.7c-10.7,0-19.5,8.7-19.5,19.5c0,10.7,8.7,19.5,19.5,19.5c10.7,0,19.5-8.7,19.5-19.5l0,0
	C912.3,555.5,903.6,546.7,892.9,546.7z M892.9,578.2c-6.6,0-12-5.4-12-12s5.4-12,12-12s12,5.4,12,12
	C904.9,572.8,899.5,578.2,892.9,578.2C892.9,578.2,892.9,578.2,892.9,578.2L892.9,578.2z"/>
<path class="st3" d="M818,531.8h74.8l0,0v74.1c0,5.4-4.4,9.8-9.8,9.8l0,0h-55.3c-5.4,0-9.8-4.4-9.8-9.8l0,0L818,531.8L818,531.8z"/>
<rect y="615.6" class="st5" width="971.4" height="32.9"/>
<g class="st1">
	
		<linearGradient id="SVGID_2_" gradientUnits="userSpaceOnUse" x1="600.565" y1="12.8501" x2="600.565" y2="544.0101" gradientTransform="matrix(1 0 0 -1 -114.28 544)">
		<stop  offset="0" style="stop-color:#808080;stop-opacity:0.25"/>
		<stop  offset="0.54" style="stop-color:#808080;stop-opacity:0.12"/>
		<stop  offset="1" style="stop-color:#808080;stop-opacity:0.1"/>
	</linearGradient>
	<path class="st6" d="M639,395.3c-10.4-37.8-69.4-65.4-113.8-71.5c0-0.3,0-0.6,0-0.8v-32.3h0.1v-1.3c31.9-11.9,56.6-37.8,67-70.2
		c2.7-5,5.1-10.1,7.2-15.4c4.7-1.7,8.3-9.5,8.3-18.9c0-3.2-0.4-6.4-1.3-9.5c0.6-4.8,0.9-9.6,0.9-14.4c0-34.1-14.4-66.6-39.7-89.4
		c0.4-1.9,0.5-3.9,0.4-5.9c-1-15.5-17.6-26.1-33.1-26.8c8.4-9.5,10.5-23,5.5-34.6c-9.9,14.4-30.3,16-47.8,16.1
		c7.6-2.9,11-13.4,6.6-20.2c-18.3,24.5-54,29.1-75.8,50.6c-4.7,4.7-8.7,10.1-11.8,16.1c-28.7,22.8-45.3,57.5-45.3,94.1
		c0,4.8,0.3,9.5,0.9,14.3c-0.9,3.1-1.4,6.4-1.4,9.6c0,9.4,3.6,17.3,8.4,19c2,5.3,4.4,10.5,7.2,15.5c10.3,32.3,34.8,58.1,66.5,70V323
		c0,0.3,0,0.5,0,0.8c-44.6,6-104.1,33.8-114.4,71.9c-8.9,32.9-18.4,69-23.2,90.2c40.6,28.5,125.7,45.2,179,45.2
		c50.7,0,133.5-15.1,172.9-41.1C658.1,466.7,648.3,429,639,395.3z"/>
</g>
<path class="st7" d="M489.3,521.7c48.9,0,128.8-14.6,166.8-39.6c-4.1-22.5-13.6-58.9-22.6-91.4c-11.4-41.5-83.5-70.2-126.5-70.2
	h-41.5c-43.2,0-115.4,28.9-126.6,70.6c-8.6,31.7-17.8,66.6-22.3,87.1C355.7,505.6,437.9,521.7,489.3,521.7z"/>
<circle class="st8" cx="486.8" cy="164.5" r="116.2"/>
<path class="st4" d="M449.3,261.3h74.5l0,0v59.6c0,20.6-16.7,37.2-37.2,37.2l0,0c-20.6,0-37.2-16.7-37.2-37.2L449.3,261.3
	L449.3,261.3z"/>
<path class="st9" d="M460,258.5h53.1c5.9,0,10.7,4.8,10.7,10.7v48.9c0,20.6-16.7,37.2-37.2,37.2l0,0c-20.6,0-37.2-16.7-37.2-37.2
	v-48.9C449.3,263.3,454.1,258.5,460,258.5C460,258.5,460,258.5,460,258.5z"/>
<path class="st4" d="M449.4,289.4c24,9,50.4,9,74.5,0.2v-9.1h-74.5V289.4z"/>
<circle class="st9" cx="486.8" cy="187.7" r="106.7"/>
<path class="st4" d="M410.7,90.6c0,0,45,91.3,171.9,38.3l-29.5-46.3l-52.4-18.8L410.7,90.6z"/>
<path class="st8" d="M410.7,89.2c0,0,45,91.3,171.9,38.3l-29.5-46.3l-52.4-18.8L410.7,89.2z"/>
<path class="st8" d="M410.4,83.1c3-9.4,8.3-17.9,15.3-24.9c21-20.8,55.4-25.1,73.1-48.8c4.2,6.6,1,16.7-6.3,19.5
	c16.9-0.1,36.5-1.6,46.1-15.5c4.8,11.2,2.7,24.2-5.3,33.4c15,0.7,31,10.9,32,25.8c0.7,10-5.6,19.4-13.8,25.1
	c-8.2,5.7-18.1,8.4-27.9,10.5C494.9,114.5,391.7,140.9,410.4,83.1z"/>
<path class="st8" d="M593.6,188.6h-2.8l-55.1,49c-53-24.9-92,0-92,0l-57.8-47l-5.8,0.7c1.6,58.9,50.7,105.4,109.6,103.8
	C547.5,293.5,593.5,246.3,593.6,188.6L593.6,188.6z M486.6,256.4c-20.8,0-37.6-4.2-37.6-9.4s16.8-9.4,37.6-9.4s37.6,4.2,37.6,9.4
	S507.4,256.4,486.6,256.4z"/>
<ellipse class="st9" cx="380" cy="187.6" rx="9.9" ry="18.6"/>
<ellipse class="st9" cx="593.5" cy="187.6" rx="9.9" ry="18.6"/>
<g class="st1">
	
		<linearGradient id="SVGID_3_" gradientUnits="userSpaceOnUse" x1="485.72" y1="47.41" x2="485.72" y2="285.3" gradientTransform="matrix(1 0 0 -1 0 663)">
		<stop  offset="0" style="stop-color:#808080;stop-opacity:0.25"/>
		<stop  offset="0.54" style="stop-color:#808080;stop-opacity:0.12"/>
		<stop  offset="1" style="stop-color:#808080;stop-opacity:0.1"/>
	</linearGradient>
	<path class="st10" d="M293.7,377.7h384.1c8,0,14.5,6.5,14.5,14.5v208.9c0,8-6.5,14.5-14.5,14.5H293.7c-8,0-14.5-6.5-14.5-14.5
		V392.2C279.2,384.2,285.7,377.7,293.7,377.7z"/>
</g>
<path class="st11" d="M313.5,382.1H658c14.8,0,26.8,12,26.8,26.8v179.8c0,14.8-12,26.8-26.8,26.8H313.5c-14.8,0-26.8-12-26.8-26.8
	V408.9C286.6,394.1,298.7,382.1,313.5,382.1z"/>
<rect x="41.2" y="648.5" class="st5" width="889.1" height="13.5"/>
<rect x="41.2" y="648.5" class="st4" width="889.1" height="4.5"/>
<path class="st4" d="M879.4,531.8V601c0,8.1-6.5,14.6-14.6,14.6h0h7.5c8.1,0,14.6-6.5,14.6-14.6c0,0,0,0,0,0v-69.2H879.4z"/>
<path class="st12" d="M832.8,476c-1.3,0.2-2.7,0.6-3.3,1.7c-1,1.8,0.8,3.8,2.4,5c3,2.3,6.2,4.5,8.2,7.6s2.7,7.5,0.5,10.6
	c-2.9,4-9.8,4.8-10.5,9.7c-0.4,3.1,2.3,5.8,5,7.3c6.7,3.9,15.4,4.9,20.3,10.9c2-4.2,6.5-6.5,11-7.6c4.5-1,9.2-1,13.8-1.6
	c1.5-0.2,3.1-0.7,3.8-2c1.3-2.6-2.4-5.7-1.1-8.3c1-2,3.8-1.8,5.8-2.6c3.3-1.3,4.7-5.6,3.8-9c-0.9-3.4-3.6-6.2-6.4-8.4
	c-7.6-6-16.7-9.5-25.9-12c-4.3-1.2-9.3-3-13.8-3.2C841.9,473.9,837,475.2,832.8,476z"/>
<g class="st13">
	<path class="st11" d="M145.2,541c0.2-0.7,19.7-67.9-22.2-128.8c-34.6-50.4-25.4-68.2-19.3-80c1.1-2.1,2.1-4.2,2.9-6.2l-5.9-2.2
		c-0.6,1.7-1.5,3.4-2.6,5.5c-6.8,13.1-17,33,19.7,86.5c40.1,58.4,21.5,122.8,21.3,123.5L145.2,541z"/>
</g>
<g>
	<path class="st14" d="M58.7,279.6c0,0,46.1,3.9,45.3,45.6C103.9,325.2,62.4,338.2,58.7,279.6z"/>
</g>
<g>
	<path class="st14" d="M72.9,421c0,0,42.8-17.7,61.1,19.8C134.1,440.8,103.1,471.4,72.9,421z"/>
</g>
<g>
	<path class="st15" d="M72.7,378.2c0,0,26.9-7.3,34.9,16.5C107.7,394.7,86.8,410.6,72.7,378.2z"/>
</g>
<g>
	<path class="st15" d="M130.7,299.7c0,0-2.2,26.7-26.4,26.2C104.3,325.9,96.7,301.8,130.7,299.7z"/>
</g>
<g>
	<path class="st15" d="M163.8,423.6c0,0,1.3,26.8-22.7,29.5C141.1,453,130.4,430.2,163.8,423.6z"/>
</g>
<g>
	<path class="st14" d="M148.7,338.6c0,0,2.4,49.1-41.7,54.1C107,392.7,87.4,350.7,148.7,338.6z"/>
</g>
<polygon class="st3" points="171.5,570.3 166.3,615.6 115.8,615.6 110.9,573.4 "/>
<polygon class="st16" points="109.9,565.1 172.2,565.1 171.2,573.5 111.3,576.6 "/>
<g>
	<polygon class="st3" points="100.4,538.2 184,538.2 179.8,568.2 104.1,568.2 	"/>
</g>
<path class="st17" d="M148.7,338.6c-33.6,23-41.7,54.1-41.7,54.1s-26.2-7.4-34.2-14.5"/>
<path class="st17" d="M58.7,279.6c17.5,24,45.6,46.3,45.6,46.3s15.4-20.6,26.4-26.2"/>
<path class="st17" d="M134.1,440.8c0,0-33.9-4.4-61.1-19.8"/>
<path class="st17" d="M141.1,453c0,0,4.3-17.5,22.7-29.5"/>
<g>
	<g>
		<path class="st18" d="M850,573.9l-0.3,0.5l-12,21.3l37.7-30.4h-19.5l15.6-16.7h-20.7l-17.3,24.3H850l0.6,0l-0.2,0.3L850,573.9
			L850,573.9z M848.1,577.8"/>
	</g>
</g>
<path id="XMLID_5_" class="st19" d="M629.2,426.8c0.7,4.7,3.9,8.9,8.7,10.8c4.8,1.8,10,0.8,13.7-2.3l-8.7-10.7L629.2,426.8"/>
<path class="st20" d="M479.1,400.6l-8.4,0.2l-0.1-6.9l-14.6,0.3l-6.8,7l-7.7,0.2l-3.8,3.9l-0.1-3.8l-6.9,0.1l-0.1-6.9l-26,0.5
	l0.1,6.9l-31.4,0.6l-7-6.8l-14.6,0.3l0.6,30.7l7,6.8l11.6,6.7l10-0.2l0-1.5l3.9,1.5l18.6-0.4l3.1-3.9l0.5,3.8l12.1-0.2l0.2-3.8
	l4.5,3.7l10.7-0.2l0.7-3.9l3.9,3.8l12.3-0.2l3.8-3.9l0.1,3.8l6.9-0.1l5.3-3.9l0.1,3.8l7.7-0.2l11.3-7.9l-0.5-23L479.1,400.6z
	 M370.4,414.2l-6.9,0.1l0.2,7.7l6.9-0.1l0.2,8.4l-10,0.2l-5.5-5.3l-0.5-26.1l8.4-0.2l0.1,6.9l6.9-0.1L370.4,414.2L370.4,414.2z
	 M405.1,424.3l-5.3,5.5l-26.1,0.5l-0.5-24.5l8.4-0.2l0.3,16.1l3.1-0.1l-0.3-16.1l8.4-0.2l0.3,16.1l3.1-0.1l-0.3-16.1l8.4-0.2
	L405.1,424.3z M416.7,429.4l-8.4,0.2l-0.5-24.5l8.4-0.2L416.7,429.4z M416.2,401.8l-8.4,0.2l-0.1-3.8l8.4-0.2L416.2,401.8z
	 M434.8,413l-6.9,0.1l0.2,7.7l6.9-0.1l0.2,8.4l-10,0.2l-5.5-5.3l-0.5-26.1l8.4-0.2l0.1,6.9l6.9-0.1L434.8,413z M456.3,412.5l-10,0.2
	l0.2,7.7l10-0.2l0.2,8.4l-13,0.3l-5.5-5.3l-0.3-13.8l5.3-5.5l13-0.3L456.3,412.5z M483.5,428.1l-8.4,0.2l-0.3-16.1l-6.9,0.1
	l0.3,16.1l-8.4,0.2l-0.6-31.4l8.4-0.2l0.1,6.9l10-0.2l5.5,5.3L483.5,428.1z"/>
<g>
	<defs>
		<path id="SVGID_4_" d="M418.5,484.7l-8.7-15.4l-5.5-9.5c-0.8-1.1-2.1-2.1-3.8-2.1H372c-1.5,0-3,0.8-3.8,2.3l-8.7,15.4l-5.5,9.5
			c-0.8,1.3-0.8,3,0,4.4l14.2,24.7c0.8,1.3,2.3,2.3,3.8,2.3h28.5c1.5,0,3-0.8,3.8-2.3l14.2-24.9
			C419.3,487.7,419.3,486.2,418.5,484.7z M386,495.7c-4.7,0-8.7-4-8.7-8.7c0-4.7,4-8.7,8.7-8.7c4.7,0,8.7,4,8.7,8.7
			C394.8,491.7,391,495.7,386,495.7z"/>
	</defs>
	<clipPath id="SVGID_5_">
		<use xlink:href="#SVGID_4_"  style="overflow:visible;"/>
	</clipPath>
	<g class="st21">
		<path class="st22" d="M376.1,469.5h33.6l-5.5-9.5c-0.8-1.3-2.1-2.3-3.8-2.3H372c-1.5,0-3,0.8-3.8,2.3l-8.7,15.4l16.7,29.1
			C376.1,504.5,376.1,469.5,376.1,469.5z"/>
		
			<linearGradient id="SVGID_6_" gradientUnits="userSpaceOnUse" x1="365.4091" y1="177.2484" x2="379.9482" y2="185.6625" gradientTransform="matrix(1 0 0 -1 0 663)">
			<stop  offset="0" style="stop-color:#2D3079;stop-opacity:0.2"/>
			<stop  offset="0.66" style="stop-color:#2D3079;stop-opacity:0"/>
		</linearGradient>
		<path class="st23" d="M376.1,469.5h33.6l-5.5-9.5c-0.8-1.3-2.1-2.3-3.8-2.3H372c-1.5,0-3,0.8-3.8,2.3l-8.7,15.4l16.7,29.1
			C376.1,504.5,376.1,469.5,376.1,469.5z"/>
		
			<linearGradient id="SVGID_7_" gradientUnits="userSpaceOnUse" x1="358.0571" y1="186.4031" x2="366.6378" y2="177.8226" gradientTransform="matrix(1 0 0 -1 0 663)">
			<stop  offset="0" style="stop-color:#2D3079;stop-opacity:0.2"/>
			<stop  offset="1" style="stop-color:#2D3079;stop-opacity:4.000000e-02"/>
		</linearGradient>
		<polygon class="st24" points="359.4,475.4 368,483.8 366.5,487.7 		"/>
		<polygon class="st25" points="366.8,487.6 360.4,476.4 359.4,475.4 366.5,487.7 		"/>
		<path class="st26" d="M376.1,504.5l-16.7-29.1l-5.5,9.5c-0.8,1.3-0.8,3,0,4.4l14.2,24.7c0.8,1.3,2.3,2.3,3.8,2.3h17.7l16.9-29.2
			L376.1,504.5z"/>
		
			<linearGradient id="SVGID_8_" gradientUnits="userSpaceOnUse" x1="395.6954" y1="157.2927" x2="381.2867" y2="165.7289" gradientTransform="matrix(1 0 0 -1 0 663)">
			<stop  offset="0" style="stop-color:#BE3A26;stop-opacity:0.15"/>
			<stop  offset="0.66" style="stop-color:#BE3A26;stop-opacity:0"/>
		</linearGradient>
		<path class="st27" d="M376.1,504.5l-16.7-29.1l-5.5,9.5c-0.8,1.3-0.8,3,0,4.4l14.2,24.7c0.8,1.3,2.3,2.3,3.8,2.3h17.7l16.9-29.2
			L376.1,504.5z"/>
		<path class="st28" d="M409.8,469.5h-33.6l30.2,17.5l-16.9,29.2h11c1.5,0,3-0.8,3.8-2.3l14.2-24.9c0.8-1.3,0.8-3,0-4.4L409.8,469.5
			z"/>
		
			<linearGradient id="SVGID_9_" gradientUnits="userSpaceOnUse" x1="397.601" y1="193.0993" x2="397.601" y2="176.3895" gradientTransform="matrix(1 0 0 -1 0 663)">
			<stop  offset="0" style="stop-color:#A52822;stop-opacity:0.2"/>
			<stop  offset="0.66" style="stop-color:#A52822;stop-opacity:0"/>
		</linearGradient>
		<path class="st29" d="M409.8,469.5h-33.6l30.2,17.5l-16.9,29.2h11c1.5,0,3-0.8,3.8-2.3l14.2-24.9c0.8-1.3,0.8-3,0-4.4L409.8,469.5
			z"/>
		
			<linearGradient id="SVGID_10_" gradientUnits="userSpaceOnUse" x1="386.5339" y1="176.5397" x2="408.0166" y2="155.0571" gradientTransform="matrix(1 0 0 -1 0 663)">
			<stop  offset="0" style="stop-color:#3E2723;stop-opacity:0.15"/>
			<stop  offset="1" style="stop-color:#3E2723;stop-opacity:0"/>
		</linearGradient>
		<polygon class="st30" points="396.3,469.5 419.1,492.3 419.1,516.2 389.6,516.2 396.3,504.5 		"/>
		<rect x="396.1" y="469.5" class="st31" width="14.2" height="0.4"/>
	</g>
</g>
<g>
	<defs>
		<path id="SVGID_11_" d="M418.5,484.7l-8.7-15.4l-5.5-9.5c-0.8-1.1-2.1-2.1-3.8-2.1H372c-1.5,0-3,0.8-3.8,2.3l-8.7,15.4l-5.5,9.5
			c-0.8,1.3-0.8,3,0,4.4l14.2,24.7c0.8,1.3,2.3,2.3,3.8,2.3h28.5c1.5,0,3-0.8,3.8-2.3l14.2-24.9
			C419.3,487.7,419.3,486.2,418.5,484.7z M386,495.7c-4.7,0-8.7-4-8.7-8.7c0-4.7,4-8.7,8.7-8.7c4.7,0,8.7,4,8.7,8.7
			C394.8,491.7,391,495.7,386,495.7z"/>
	</defs>
	<clipPath id="SVGID_12_">
		<use xlink:href="#SVGID_11_"  style="overflow:visible;"/>
	</clipPath>
	<g class="st32">
		<g>
			<defs>
				<path id="SVGID_13_" d="M409.8,469.5h-33.6l30.2,17.5l-16.9,29.2h11c1.5,0,3-0.8,3.8-2.3l14.2-24.9c0.8-1.3,0.8-3,0-4.4
					L409.8,469.5z"/>
			</defs>
			<defs>
				<path id="SVGID_14_" d="M409.8,469.5h-33.6l30.2,17.5l-16.9,29.2h11c1.5,0,3-0.8,3.8-2.3l14.2-24.9c0.8-1.3,0.8-3,0-4.4
					L409.8,469.5z"/>
			</defs>
			<clipPath id="SVGID_15_">
				<use xlink:href="#SVGID_13_"  style="overflow:visible;"/>
			</clipPath>
			<clipPath id="SVGID_16_" class="st33">
				<use xlink:href="#SVGID_14_"  style="overflow:visible;"/>
			</clipPath>
			<g class="st34">
				<path class="st12" d="M396.3,469.5l10.1,17.5l-10.1,17.5h-20.1L366.1,487l10.1-17.5H396.3"/>
			</g>
			<g class="st34">
				<path class="st22" d="M376.1,469.5h33.6l-5.5-9.5c-0.8-1.3-2.1-2.3-3.8-2.3H372c-1.5,0-3,0.8-3.8,2.3l-8.7,15.4l16.7,29.1
					C376.1,504.5,376.1,469.5,376.1,469.5z"/>
			</g>
		</g>
		<g>
			<defs>
				<path id="SVGID_17_" d="M418.5,484.7l-8.7-15.4l-5.5-9.5c-0.8-1.1-2.1-2.1-3.8-2.1H372c-1.5,0-3,0.8-3.8,2.3l-8.7,15.4l-5.5,9.5
					c-0.8,1.3-0.8,3,0,4.4l14.2,24.7c0.8,1.3,2.3,2.3,3.8,2.3h28.5c1.5,0,3-0.8,3.8-2.3l14.2-24.9
					C419.3,487.7,419.3,486.2,418.5,484.7z M386,495.7c-4.7,0-8.7-4-8.7-8.7c0-4.7,4-8.7,8.7-8.7c4.7,0,8.7,4,8.7,8.7
					C394.8,491.7,391,495.7,386,495.7z"/>
			</defs>
			<clipPath id="SVGID_18_">
				<use xlink:href="#SVGID_17_"  style="overflow:visible;"/>
			</clipPath>
			<g class="st35">
				<g>
					<defs>
						<path id="SVGID_19_" d="M376.1,504.5l-16.7-29.1l-5.5,9.5c-0.8,1.3-0.8,3,0,4.4l14.2,24.7c0.8,1.3,2.3,2.3,3.8,2.3h17.7
							l16.9-29.2L376.1,504.5z"/>
					</defs>
					<clipPath id="SVGID_20_">
						<use xlink:href="#SVGID_19_"  style="overflow:visible;"/>
					</clipPath>
					<g class="st36">
						<path class="st12" d="M396.3,469.5l10.1,17.5l-10.1,17.5h-20.1L366.1,487l10.1-17.5H396.3"/>
					</g>
				</g>
				<g>
					<defs>
						<path id="SVGID_21_" d="M418.5,484.7l-8.7-15.4l-5.5-9.5c-0.8-1.1-2.1-2.1-3.8-2.1H372c-1.5,0-3,0.8-3.8,2.3l-8.7,15.4
							l-5.5,9.5c-0.8,1.3-0.8,3,0,4.4l14.2,24.7c0.8,1.3,2.3,2.3,3.8,2.3h28.5c1.5,0,3-0.8,3.8-2.3l14.2-24.9
							C419.3,487.7,419.3,486.2,418.5,484.7z M386,495.7c-4.7,0-8.7-4-8.7-8.7c0-4.7,4-8.7,8.7-8.7c4.7,0,8.7,4,8.7,8.7
							C394.8,491.7,391,495.7,386,495.7z"/>
					</defs>
					<clipPath id="SVGID_22_">
						<use xlink:href="#SVGID_21_"  style="overflow:visible;"/>
					</clipPath>
					<g class="st37">
						<path class="st12" d="M396.3,469.5l10.1,17.5l-10.1,17.5h-20.1L366.1,487l10.1-17.5H396.3"/>
						<polygon class="st38" points="396.3,469.9 406.1,487 406.5,487 396.3,469.5 376.1,469.5 366.1,487 366.3,487 376.1,469.9 
													"/>
						<polygon class="st39" points="406.1,487 396.3,504.1 376.1,504.1 366.3,487 366.1,487 376.1,504.5 396.3,504.5 406.5,487 
													"/>
						<polygon class="st40" points="406.5,487 396.3,504.5 376.1,504.5 366.1,487 366.1,487.4 376.1,504.8 396.3,504.8 406.5,487.4 
													"/>
						<path class="st41" d="M386,477.9c-4.7,0-8.7,4-8.7,8.7h17.5C394.9,481.9,391,477.9,386,477.9z M377.3,487.4
							c0,4.7,4,8.7,8.7,8.7c4.7,0,8.7-4,8.7-8.7H377.3z"/>
					</g>
				</g>
				<g>
					<defs>
						<path id="SVGID_23_" d="M418.5,484.7l-8.7-15.4l-5.5-9.5c-0.8-1.1-2.1-2.1-3.8-2.1H372c-1.5,0-3,0.8-3.8,2.3l-8.7,15.4
							l-5.5,9.5c-0.8,1.3-0.8,3,0,4.4l14.2,24.7c0.8,1.3,2.3,2.3,3.8,2.3h28.5c1.5,0,3-0.8,3.8-2.3l14.2-24.9
							C419.3,487.7,419.3,486.2,418.5,484.7z M386,495.7c-4.7,0-8.7-4-8.7-8.7c0-4.7,4-8.7,8.7-8.7c4.7,0,8.7,4,8.7,8.7
							C394.8,491.7,391,495.7,386,495.7z"/>
					</defs>
					<clipPath id="SVGID_24_">
						<use xlink:href="#SVGID_23_"  style="overflow:visible;"/>
					</clipPath>
					
						<linearGradient id="SVGID_25_" gradientUnits="userSpaceOnUse" x1="386.2051" y1="158.5054" x2="386.2051" y2="146.8815" gradientTransform="matrix(1 0 0 -1 0 663)">
						<stop  offset="0" style="stop-color:#3E2723;stop-opacity:0.15"/>
						<stop  offset="3.546852e-02" style="stop-color:#462823;stop-opacity:0.1447"/>
						<stop  offset="0.2522" style="stop-color:#712E24;stop-opacity:0.1122"/>
						<stop  offset="0.4625" style="stop-color:#923325;stop-opacity:8.062769e-02"/>
						<stop  offset="0.6619" style="stop-color:#AA3726;stop-opacity:5.071827e-02"/>
						<stop  offset="0.8459" style="stop-color:#B93926;stop-opacity:2.311477e-02"/>
						<stop  offset="1" style="stop-color:#BE3A26;stop-opacity:0"/>
					</linearGradient>
					<polygon class="st42" points="376.1,504.5 387.9,516.2 389.6,516.2 396.3,504.5 					"/>
				</g>
				<g>
					<defs>
						<path id="SVGID_26_" d="M418.5,484.7l-8.7-15.4l-5.5-9.5c-0.8-1.1-2.1-2.1-3.8-2.1H372c-1.5,0-3,0.8-3.8,2.3l-8.7,15.4
							l-5.5,9.5c-0.8,1.3-0.8,3,0,4.4l14.2,24.7c0.8,1.3,2.3,2.3,3.8,2.3h28.5c1.5,0,3-0.8,3.8-2.3l14.2-24.9
							C419.3,487.7,419.3,486.2,418.5,484.7z M386,495.7c-4.7,0-8.7-4-8.7-8.7c0-4.7,4-8.7,8.7-8.7c4.7,0,8.7,4,8.7,8.7
							C394.8,491.7,391,495.7,386,495.7z"/>
					</defs>
					<clipPath id="SVGID_27_">
						<use xlink:href="#SVGID_26_"  style="overflow:visible;"/>
					</clipPath>
					<g class="st43">
						<path class="st44" d="M359.4,475.8l8.7-15.4c0.8-1.3,2.3-2.3,3.8-2.3h28.5c1.5,0,3,0.8,3.8,2.3l5.5,9.5l8.7,15.4
							c0.4,0.6,0.6,1.3,0.6,2.1c0-0.8-0.2-1.7-0.6-2.3l-8.7-15.4l-5.5-9.5c-0.8-1.5-2.1-2.5-3.8-2.5H372c-1.5,0-3,0.8-3.8,2.3
							l-8.7,15.4l-5.5,9.5c-0.4,0.8-0.6,1.5-0.6,2.3c0-0.8,0.2-1.3,0.6-2.1L359.4,475.8z M372,515.9c-1.5,0-3-0.8-3.8-2.3l-8.7-15.4
							l-5.5-9.5c-0.4-0.6-0.6-1.3-0.6-2.1c0,0.8,0.2,1.7,0.6,2.3l5.5,9.5l8.7,15.6c0.8,1.3,2.3,2.3,3.8,2.3h17.7l0.2-0.4H372z
							 M419.1,486.8c0,0.8-0.2,1.3-0.6,2.1l-8.7,15.4l-5.5,9.5c-0.8,1.3-2.3,2.3-3.8,2.3h-10.6l-0.2,0.4h10.8c1.5,0,3-0.8,3.8-2.3
							l5.5-9.5l8.7-15.4C418.9,488.5,419.1,487.6,419.1,486.8z"/>
					</g>
				</g>
				
					<radialGradient id="SVGID_28_" cx="369.8016" cy="2582.0581" r="65.6545" gradientTransform="matrix(6.457271e-03 0 0 -6.457271e-03 1486.3398 -4793.5366)" gradientUnits="userSpaceOnUse">
					<stop  offset="0" style="stop-color:#FFFFFF;stop-opacity:0.1"/>
					<stop  offset="1" style="stop-color:#FFFFFF;stop-opacity:0"/>
				</radialGradient>
				<path class="st45" d="M418.5,484.7l-8.7-15.4l-5.5-9.5c-0.8-1.1-2.1-2.1-3.8-2.1H372c-1.5,0-3,0.8-3.8,2.3l-8.7,15.4l-5.5,9.5
					c-0.8,1.3-0.8,3,0,4.4l14.2,24.7c0.8,1.3,2.3,2.3,3.8,2.3h28.5c1.5,0,3-0.8,3.8-2.3l14.2-24.9
					C419.3,487.7,419.3,486.2,418.5,484.7z M386,495.7c-4.7,0-8.7-4-8.7-8.7c0-4.7,4-8.7,8.7-8.7c4.7,0,8.7,4,8.7,8.7
					C394.8,491.7,391,495.7,386,495.7z"/>
				<rect x="353.3" y="451.8" class="st0" width="65.7" height="70.1"/>
				<g class="st46">
					<g>
						<defs>
							<rect id="SVGID_29_" x="436.7" y="451.8" width="454.9" height="70.1"/>
						</defs>
						<clipPath id="SVGID_30_">
							<use xlink:href="#SVGID_29_"  style="overflow:visible;"/>
						</clipPath>
						<rect x="436.7" y="466.9" class="st47" width="454.9" height="49.6"/>
					</g>
					<g>
						<defs>
							<rect id="SVGID_31_" x="436.7" y="451.8" width="454.9" height="70.1"/>
						</defs>
						<clipPath id="SVGID_32_">
							<use xlink:href="#SVGID_31_"  style="overflow:visible;"/>
						</clipPath>
						<g class="st48">
							<path d="M598.9,487.7c0-9.9,7.6-17.5,17.5-17.5c5.1,0,9.3,2.1,12.3,5.5l-3,2.8c-2.3-2.8-5.5-4.2-9.3-4.2
								c-7,0-12.9,5.1-12.9,13.3s5.9,13.3,12.9,13.3c4.2,0,7.8-1.9,10.3-4.9l3,3c-2.8,3.4-7.6,5.9-13.3,5.9
								C606.5,505.2,598.9,497.8,598.9,487.7z M632.9,504.5V471h4.4v33.4H632.9z M664.1,493.1c0,7-4.9,12.2-11.8,12.2
								s-11.8-5.3-11.8-12.2c0-7,4.9-12.2,11.8-12.2C659.1,480.9,664.1,486,664.1,493.1z M659.7,493.1c0-5.3-3.6-8.4-7.4-8.4
								c-3.8,0-7.4,3-7.4,8.4c0,5.3,3.6,8.4,7.4,8.4C656.1,501.2,659.7,498.2,659.7,493.1z M683.4,504.5v-3.2h-0.2
								c-1.3,2.1-4.2,4-7.2,4c-5.9,0-8.7-4-8.7-9.7v-14.1h4.4v13.3c0,4.7,2.5,6.5,5.7,6.5c3.8,0,6.1-3.6,6.1-7v-12.5h4.4v23h-4.4
								V504.5z M691,493.1c0-7,5.1-12.2,10.8-12.2c3.6,0,6.5,1.9,7.8,4h0.2l-0.2-3.2V471h4.4v33.4h-4v-3.2h-0.2
								c-1.3,2.1-4.2,4-7.8,4C696.2,505.2,691,500.1,691,493.1z M710,493.1c0-5.3-3.4-8.4-7.2-8.4c-3.8,0-7.2,3-7.2,8.4
								c0,5.1,3.4,8.4,7.2,8.4C706.4,501.2,710,498.2,710,493.1z M725.8,504.5V471h11.4c5.5,0,10.4,4.2,10.4,9.9
								c0,5.7-4.9,9.9-10.4,9.9h-7v13.5h-4.4V504.5z M737.4,486.8c3.8,0,5.9-3.2,5.9-5.9c0-2.7-2.1-5.9-5.9-5.9h-7.2v11.8H737.4z
								 M750.7,504.5V471h4.4v33.4H750.7z M758.7,497.6c0-5.1,4.7-8,10.1-8c3,0,5.3,0.9,6.3,1.3v-0.6c0-3.4-2.8-5.5-5.9-5.5
								c-2.5,0-4.7,1.1-5.5,3.2l-4-1.7c0.8-2.1,3.6-5.5,9.3-5.5s10.3,3.4,10.3,9.9v13.9H775v-3.2h-0.2c-1.3,1.9-3.6,4-7.6,4
								C762.6,505.2,758.7,502.4,758.7,497.6z M775,494.6c0,0-1.9-1.5-5.5-1.5c-4.6,0-6.3,2.5-6.3,4.6c0,2.5,2.5,3.6,4.7,3.6
								C771.4,501.2,775,498.4,775,494.6z M785.2,497.6v-12h-4v-4h4v-7h4.4v7h5.7v4h-5.7v11.8c0,2.7,1.1,3.8,3,3.8
								c0.8,0,1.3,0,1.9-0.4l1.5,3.6c-0.9,0.4-2.1,0.6-3.4,0.6C787.9,504.8,785.2,502.2,785.2,497.6z M813.2,471.4l-1.5,3.6
								c-0.6-0.2-1.1-0.4-1.9-0.4c-2.1,0-3.8,1.3-3.8,4v2.8h5.9v4H806v19h-4.4v-19h-4.2v-4h4.4v-2.8c0-4.7,3.2-7.8,8.2-7.8
								C811.3,470.8,812.2,471,813.2,471.4z M836.7,493.1c0,7-4.9,12.2-11.8,12.2c-6.8,0-11.8-5.3-11.8-12.2c0-7,4.9-12.2,11.8-12.2
								C831.8,480.9,836.7,486,836.7,493.1z M832.4,493.1c0-5.3-3.6-8.4-7.4-8.4c-3.8,0-7.4,3-7.4,8.4c0,5.3,3.6,8.4,7.4,8.4
								C828.7,501.2,832.4,498.2,832.4,493.1z M840.1,504.5v-22.8h4.2v3.8h0.2c0.9-2.7,4.2-4.4,6.6-4.4c1.3,0,2.3,0.2,3.2,0.6
								l-1.7,4c-0.6-0.2-1.3-0.4-2.3-0.4c-3,0-5.9,2.5-5.9,6.6v12.5H840.1z M856.7,481.7h4.2v3.2h0.2c1.3-2.3,4.4-4,7-4
								c3.6,0,6.1,1.7,7.2,4.4c1.7-2.7,4.4-4.4,8-4.4c5.7,0,8.2,4,8.2,9.7v14.1h-4.4v-13.3c0-4.7-1.9-6.3-5.1-6.3
								c-3.4,0-5.9,3.6-5.9,7v12.7h-4.4v-13.3c0-4.7-1.9-6.3-5.1-6.3c-3.4,0-5.9,3.6-5.9,7V505h-4.4v-23.4H856.7z"/>
						</g>
					</g>
					<g>
						<defs>
							<rect id="SVGID_33_" x="436.7" y="451.8" width="454.9" height="70.1"/>
						</defs>
						<clipPath id="SVGID_34_">
							<use xlink:href="#SVGID_33_"  style="overflow:visible;"/>
						</clipPath>
						<g class="st49">
							
								<use xlink:href="#logo_x5F_dark"  width="416" height="136" x="-208" y="-68" transform="matrix(0.365 0 0 -0.365 512.5798 491.7132)" style="overflow:visible;"/>
						</g>
					</g>
				</g>
			</g>
		</g>
	</g>
</g>
<circle class="st50" cx="624" cy="509.4" r="41.8"/>
<path class="st51" d="M617.2,547.7c-21.2-3.7-35.3-23.9-31.6-45c3.7-21.2,23.9-35.3,45-31.6c21.2,3.7,35.3,23.9,31.6,45
	C658.6,537.3,638.4,551.4,617.2,547.7z M626.7,498.8c3.4,0.6,7.6,2.6,10.7,5.1l1.9-10.6c-3.5-2.1-7.1-3.6-10.8-4.2
	c-9.1-1.6-16.2,2.1-17.6,10.1c-2.2,12.5,15.3,13.5,14.3,18.8c-0.4,2.1-2.1,2.5-4.7,2c-3.7-0.7-8.1-3.1-11.5-5.9l-1.9,10.8
	c3.9,2.5,7.8,4.1,11.7,4.8c9.4,1.6,16.5-1.9,17.9-10c2.4-13.4-15.3-14.1-14.4-19.1C622.6,498.8,624.3,498.4,626.7,498.8L626.7,498.8
	z"/>
<g id="Page-1">
	<g id="styleguide" transform="translate(-243.000000, -875.000000)">
		<g id="Group-10" transform="translate(154.000000, 835.000000)">
			<g id="logo_lockup_firebase_horizontal" transform="translate(66.000000, 34.000000)">
				<path id="Shape" class="st52" d="M445,563.9l-3.2-0.1l0.9-24.7l14.5,0.5l-0.1,3l-11.3-0.4l-0.3,8.1l10.2,0.4l-0.1,3l-10.2-0.4
					L445,563.9z M463.1,543.4c-0.8,0.7-2,0.8-2.9,0.2s-1.2-1.8-0.7-2.8c0.4-1,1.5-1.5,2.6-1.3c1.1,0.2,1.8,1.2,1.7,2.3
					C463.8,542.4,463.5,543,463.1,543.4L463.1,543.4z M462.3,564.5l-3.2-0.1l0.6-16.9l3.2,0.1L462.3,564.5z M469.3,564.8l-3.2-0.1
					l0.6-16.9l3.1,0.1l-0.1,2.8l0.1,0c0.4-1,1.1-1.7,2.1-2.2c0.9-0.5,1.9-0.8,3-0.8c0.8,0,1.6,0.2,2.4,0.5l-1.3,2.9
					c-0.5-0.2-1.1-0.3-1.7-0.3c-1.2,0-2.3,0.4-3.1,1.2c-0.9,0.9-1.4,2-1.5,3.5L469.3,564.8z M485.3,565.9c-2.6-0.1-4.6-1-6.2-2.8
					c-1.5-1.8-2.3-3.9-2.2-6.5c0-2.3,1-4.6,2.6-6.2c1.6-1.7,3.8-2.6,6.1-2.4c2.5,0.1,4.5,1,6,2.7s2.1,3.9,2,6.6l-0.1,0.6l-13.4-0.5
					c0,1.7,0.6,3.1,1.6,4.1c0.9,1,2.3,1.6,3.6,1.6c2.3,0.1,3.9-0.8,4.8-2.7l2.8,1.3c-0.6,1.3-1.6,2.4-2.9,3.2
					C488.8,565.6,487.2,566,485.3,565.9z M490.3,555.1c0-1-0.4-1.9-1.2-2.8c-0.8-0.9-2-1.4-3.6-1.4c-1.1-0.1-2.2,0.3-3.1,1
					c-0.9,0.7-1.6,1.8-1.9,2.9L490.3,555.1z M504.8,566.7c-1.2,0-2.4-0.3-3.4-0.9c-0.9-0.5-1.7-1.3-2.2-2.2l-0.1,0l-0.1,2.3
					l-3.1-0.1l0.9-24.7l3.2,0.1l-0.3,7.8l-0.2,2.3l0.1,0c0.6-0.9,1.4-1.5,2.4-2c1.1-0.5,2.3-0.8,3.5-0.7c2.2,0.1,4.1,1,5.6,2.8
					c1.5,1.8,2.3,3.9,2.2,6.5c-0.1,2.5-1,4.7-2.6,6.3S507,566.7,504.8,566.7z M504.4,563.7c1.5,0.1,2.9-0.5,3.9-1.5
					c1.1-1.1,1.7-2.5,1.8-4.4s-0.4-3.3-1.4-4.5c-0.9-1.1-2.3-1.8-3.8-1.8c-1.5-0.1-2.9,0.5-3.9,1.5c-1.1,1.1-1.7,2.5-1.7,4.4
					c-0.1,1.9,0.4,3.4,1.4,4.5C501.6,563.1,503,563.7,504.4,563.7L504.4,563.7z M521.1,567.3c-1.8-0.1-3.3-0.6-4.5-1.7
					c-1.2-1.1-1.7-2.5-1.7-4.2c0.1-1.8,0.8-3.3,2.3-4.2c1.5-1,3.3-1.4,5.4-1.4c1.9,0.1,3.4,0.5,4.6,1.2l0-0.5c0.1-1.1-0.3-2.2-1.2-3
					c-0.8-0.8-2-1.2-3.1-1.2c-0.9,0-1.8,0.1-2.5,0.6c-0.7,0.4-1.3,1-1.6,1.7l-2.9-1.3c0.4-1,1.2-1.9,2.4-2.7
					c1.2-0.8,2.7-1.2,4.6-1.1c2.2,0.1,4,0.8,5.4,2.1s2,3.1,2,5.4l-0.4,10.2l-3.1-0.1l0.1-2.3l-0.1,0
					C525.4,566.5,523.5,567.4,521.1,567.3L521.1,567.3z M521.7,564.4c1.3,0,2.6-0.4,3.6-1.3c1.1-0.8,1.7-2.1,1.8-3.4
					c-0.9-0.8-2.2-1.2-4-1.3c-1.6-0.1-2.7,0.2-3.5,0.9c-0.8,0.5-1.2,1.4-1.3,2.3c0,0.8,0.3,1.6,1,2
					C520,564.1,520.8,564.4,521.7,564.4L521.7,564.4z M539.2,568c-1.9-0.1-3.4-0.6-4.6-1.6c-1.2-0.9-2.1-2.2-2.6-3.5l2.9-1.1
					c0.8,2.1,2.3,3.3,4.5,3.3c0.9,0.1,1.7-0.1,2.5-0.6c0.6-0.3,1-1,1-1.7c0-1.1-0.7-1.9-2.2-2.3l-3.4-1c-1.1-0.3-2.2-0.9-3-1.7
					c-0.9-0.8-1.4-2-1.3-3.2c0.1-1.5,0.8-2.7,2.1-3.6c1.4-0.9,3.1-1.3,4.8-1.2c1.4,0,2.8,0.4,4,1.2c1.1,0.7,2,1.8,2.4,3l-2.8,1
					c-0.6-1.5-1.8-2.3-3.8-2.4c-0.8-0.1-1.7,0.1-2.4,0.5c-0.6,0.3-1,0.9-1,1.5c0,1,0.7,1.6,2.2,2l3.3,0.9c1.6,0.4,2.7,1.1,3.5,2
					c0.7,0.9,1.1,2,1,3.1c0,1.5-0.8,2.9-2,3.7C542.8,567.6,541.2,568,539.2,568L539.2,568z M556.4,568.6c-2.6-0.1-4.6-1-6.2-2.8
					c-1.5-1.8-2.3-3.9-2.2-6.5c0-2.3,1-4.6,2.6-6.2c1.6-1.7,3.8-2.6,6.1-2.4c2.5,0.1,4.5,1,6,2.7s2.1,3.9,2,6.6l-0.1,0.6l-13.4-0.5
					c0,1.7,0.6,3.1,1.6,4.1c1,1,2.3,1.6,3.6,1.6c2.3,0.1,3.9-0.8,4.8-2.7l2.8,1.3c-0.6,1.3-1.6,2.4-2.9,3.2
					C559.8,568.3,558.3,568.7,556.4,568.6L556.4,568.6z M561.4,557.7c0-1-0.4-1.9-1.2-2.8s-2-1.4-3.6-1.4c-1.1-0.1-2.2,0.3-3.1,1
					c-0.9,0.7-1.6,1.8-1.9,2.9L561.4,557.7z"/>
				<g id="_Group_">
					<g id="_Clip_Group_" transform="translate(23.833333, 5.958333)">
						<g id="_Path_3">
							
								<linearGradient id="path-2_2_" gradientUnits="userSpaceOnUse" x1="-720.3065" y1="888.2234" x2="-719.9265" y2="887.947" gradientTransform="matrix(95.266 3.5835 4.9263 -130.9645 64615.0977 119434.4375)">
								<stop  offset="0" style="stop-color:#FFFFFF;stop-opacity:0.1"/>
								<stop  offset="0.14" style="stop-color:#FFFFFF;stop-opacity:8.000000e-02"/>
								<stop  offset="0.61" style="stop-color:#FFFFFF;stop-opacity:2.000000e-02"/>
								<stop  offset="1" style="stop-color:#FFFFFF;stop-opacity:0"/>
							</linearGradient>
							<path id="path-2_1_" class="st53" d="M401.4,531.2c-0.1-0.4-0.3-0.7-0.7-0.9s-0.8-0.1-1.1,0.2l-5.8,5.4l-4.1-8.6
								c-0.2-0.4-0.5-0.6-0.9-0.6s-0.8,0.2-1,0.5l-2.6,4.5l-5.6-11.6c-0.2-0.4-0.7-0.7-1.1-0.6c-0.5,0.1-0.8,0.4-0.9,0.9l-7.3,37.3
								l15.4,9.4c1,0.6,2.2,0.6,3.2,0.1l16.2-8.2L401.4,531.2z"/>
						</g>
						<defs>
							<filter id="Adobe_OpacityMaskFilter" filterUnits="userSpaceOnUse" x="367.9" y="519.7" width="36.9" height="40.1">
								<feColorMatrix  type="matrix" values="1 0 0 0 0  0 1 0 0 0  0 0 1 0 0  0 0 0 1 0"/>
							</filter>
						</defs>
						<mask maskUnits="userSpaceOnUse" x="367.9" y="519.7" width="36.9" height="40.1" id="mask-3_8_">
							<g class="st54">
								<path id="path-2_9_" class="st50" d="M401.4,531.2c-0.1-0.4-0.3-0.7-0.7-0.9s-0.8-0.1-1.1,0.2l-5.8,5.4l-4.1-8.6
									c-0.2-0.4-0.5-0.6-0.9-0.6s-0.8,0.2-1,0.5l-2.6,4.5l-5.6-11.6c-0.2-0.4-0.7-0.7-1.1-0.6c-0.5,0.1-0.8,0.4-0.9,0.9l-7.3,37.3
									l15.4,9.4c1,0.6,2.2,0.6,3.2,0.1l16.2-8.2L401.4,531.2z"/>
							</g>
						</mask>
						<g id="_Group_2" class="st55">
							<g transform="translate(-5.958333, 0.000000)">
								<path id="_Path_" class="st56" d="M376.1,557.9l7.3-37.4c0.1-0.5,0.5-0.8,0.9-0.9c0.5-0.1,0.9,0.2,1.1,0.6l5.6,11.6l2.6-4.5
									c0.2-0.3,0.6-0.6,1-0.5s0.8,0.3,0.9,0.6l15.2,31.8L376.1,557.9z"/>
								<g id="_Group_3" transform="translate(0.000000, 26.067708)">
									<g transform="matrix(1 -3.725290e-09 3.725290e-09 1 0 3.051758e-05)" style="opacity:0.12;enable-background:new    ;">
										
											<image style="overflow:visible;" width="87" height="111" id="Bitmap" xlink:href="5E82F4FF640EE5B4.png"  transform="matrix(0.2711 1.019675e-02 -1.019675e-02 0.2711 375.0021 502.7297)">
										</image>
									</g>
									<polygon id="Shape_1_" class="st57" points="396.9,517.9 391,505.7 376.1,531.8 									"/>
								</g>
							</g>
						</g>
						<defs>
							<filter id="Adobe_OpacityMaskFilter_1_" filterUnits="userSpaceOnUse" x="368.6" y="526.7" width="39.5" height="42.9">
								<feColorMatrix  type="matrix" values="1 0 0 0 0  0 1 0 0 0  0 0 1 0 0  0 0 0 1 0"/>
							</filter>
						</defs>
						<mask maskUnits="userSpaceOnUse" x="368.6" y="526.7" width="39.5" height="42.9" id="mask-3_7_">
							<g class="st58">
								<path id="path-2_8_" class="st50" d="M401.4,531.2c-0.1-0.4-0.3-0.7-0.7-0.9s-0.8-0.1-1.1,0.2l-5.8,5.4l-4.1-8.6
									c-0.2-0.4-0.5-0.6-0.9-0.6s-0.8,0.2-1,0.5l-2.6,4.5l-5.6-11.6c-0.2-0.4-0.7-0.7-1.1-0.6c-0.5,0.1-0.8,0.4-0.9,0.9l-7.3,37.3
									l15.4,9.4c1,0.6,2.2,0.6,3.2,0.1l16.2-8.2L401.4,531.2z"/>
							</g>
						</mask>
						<g id="_Group_4" class="st59">
							<g transform="translate(-2.979167, 20.109375)">
								<g transform="matrix(1 -3.725290e-09 3.725290e-09 1 3.051758e-05 0)" style="opacity:0.2;enable-background:new    ;">
									
										<image style="overflow:visible;" width="140" height="153" id="Bitmap_2_" xlink:href="5E82F4FF640EE5B5.png"  transform="matrix(0.2711 1.019675e-02 -1.019675e-02 0.2711 373.1889 506.5602)">
									</image>
								</g>
								<path id="Shape_2_" class="st60" d="M407.8,539.1l-3.5-28c-0.1-0.4-0.3-0.7-0.7-0.9c-0.4-0.1-0.8-0.1-1.1,0.2l-29.4,27.3
									l15.4,9.4c1,0.6,2.2,0.6,3.2,0.1L407.8,539.1z"/>
							</g>
						</g>
						<defs>
							<filter id="Adobe_OpacityMaskFilter_2_" filterUnits="userSpaceOnUse" x="370.1" y="519.7" width="34.7" height="39.6">
								<feColorMatrix  type="matrix" values="1 0 0 0 0  0 1 0 0 0  0 0 1 0 0  0 0 0 1 0"/>
							</filter>
						</defs>
						<mask maskUnits="userSpaceOnUse" x="370.1" y="519.7" width="34.7" height="39.6" id="mask-3_6_">
							<g class="st61">
								<path id="path-2_7_" class="st50" d="M401.4,531.2c-0.1-0.4-0.3-0.7-0.7-0.9s-0.8-0.1-1.1,0.2l-5.8,5.4l-4.1-8.6
									c-0.2-0.4-0.5-0.6-0.9-0.6s-0.8,0.2-1,0.5l-2.6,4.5l-5.6-11.6c-0.2-0.4-0.7-0.7-1.1-0.6c-0.5,0.1-0.8,0.4-0.9,0.9l-7.3,37.3
									l15.4,9.4c1,0.6,2.2,0.6,3.2,0.1l16.2-8.2L401.4,531.2z"/>
							</g>
						</mask>
						<path id="_Compound_Path_" class="st62" d="M401.4,531.2c-0.1-0.4-0.3-0.7-0.7-0.9s-0.8-0.1-1.1,0.2l-5.8,5.4l-4.1-8.6
							c-0.2-0.4-0.5-0.6-0.9-0.6s-0.8,0.2-1,0.5l-2.6,4.5l-5.6-11.6c-0.2-0.4-0.7-0.7-1.1-0.6c-0.5,0.1-0.8,0.4-0.9,0.9l-7.3,37.3
							l0,0l0,0l0.2,0.1l23.4-21.7l5.8-5.4c0.3-0.3,0.7-0.4,1.1-0.2c0.4,0.1,0.7,0.5,0.7,0.9l3.4,27.7l0,0L401.4,531.2z M370.2,557.8
							l7.2-37c0.1-0.5,0.5-0.8,0.9-0.9c0.5-0.1,0.9,0.2,1.1,0.6l5.6,11.6l2.6-4.5c0.2-0.3,0.6-0.6,1-0.5s0.8,0.3,0.9,0.6l4,8.4
							L370.2,557.8z"/>
						<defs>
							<filter id="Adobe_OpacityMaskFilter_3_" filterUnits="userSpaceOnUse" x="370.1" y="557.6" width="34.7" height="10.1">
								<feColorMatrix  type="matrix" values="1 0 0 0 0  0 1 0 0 0  0 0 1 0 0  0 0 0 1 0"/>
							</filter>
						</defs>
						<mask maskUnits="userSpaceOnUse" x="370.1" y="557.6" width="34.7" height="10.1" id="mask-3_5_">
							<g class="st63">
								<path id="path-2_6_" class="st50" d="M401.4,531.2c-0.1-0.4-0.3-0.7-0.7-0.9s-0.8-0.1-1.1,0.2l-5.8,5.4l-4.1-8.6
									c-0.2-0.4-0.5-0.6-0.9-0.6s-0.8,0.2-1,0.5l-2.6,4.5l-5.6-11.6c-0.2-0.4-0.7-0.7-1.1-0.6c-0.5,0.1-0.8,0.4-0.9,0.9l-7.3,37.3
									l15.4,9.4c1,0.6,2.2,0.6,3.2,0.1l16.2-8.2L401.4,531.2z"/>
							</g>
						</mask>
						<path id="_Path_2" class="st64" d="M388.7,567.1c-1,0.5-2.2,0.5-3.2-0.1l-15.3-9.4l0,0.2l15.4,9.4c1,0.6,2.2,0.6,3.2,0.1
							l16.2-8.2l0-0.3L388.7,567.1z"/>
					</g>
					<polygon id="_Rectangle_3" class="st0" points="386.8,522.9 438.9,524.8 436.9,576.9 384.9,574.9 					"/>
				</g>
				<g id="_Path_3-Copy">
					
						<linearGradient id="path-4_2_" gradientUnits="userSpaceOnUse" x1="-696.4337" y1="894.1794" x2="-696.0538" y2="893.903" gradientTransform="matrix(94.9329 3.5709 4.9241 -130.9074 62105.3359 120075.0781)">
						<stop  offset="0" style="stop-color:#FFFFFF;stop-opacity:0.1"/>
						<stop  offset="0.14" style="stop-color:#FFFFFF;stop-opacity:8.000000e-02"/>
						<stop  offset="0.61" style="stop-color:#FFFFFF;stop-opacity:2.000000e-02"/>
						<stop  offset="1" style="stop-color:#FFFFFF;stop-opacity:0"/>
					</linearGradient>
					<path id="path-4_1_" class="st65" d="M425.2,537.2c-0.1-0.4-0.3-0.7-0.7-0.9c-0.4-0.1-0.8-0.1-1.1,0.2l-5.8,5.4l-4.1-8.6
						c-0.2-0.4-0.5-0.6-0.9-0.6c-0.4,0-0.8,0.2-1,0.5l-2.6,4.5l-5.6-11.5c-0.2-0.4-0.7-0.7-1.1-0.6c-0.5,0.1-0.8,0.4-0.9,0.9
						l-7.3,37.3l15.3,9.4c1,0.6,2.2,0.6,3.2,0.1l16.1-8.2L425.2,537.2z"/>
				</g>
			</g>
		</g>
	</g>
</g>
<g>
	<path class="st66" d="M463.5,453.1l6.2,5.6c13.9-15.5,37.7-16.9,53.2-3l5.6-6.2C509.5,432.4,480.4,434.1,463.5,453.1z M488.5,475.3
		l9.4,8.4l8.4-9.4C501.1,469.7,493.1,470.2,488.5,475.3z M476,464.2l6.2,5.6c7.7-8.6,20.9-9.4,29.6-1.7l5.6-6.2
		C505.3,451.1,486.8,452.1,476,464.2z"/>
	<g>
		<g>
			<path class="st67" d="M407.2,519.8l-0.2,0.5l-9.5,19.4l31.7-28.7l-17.1,1l12.9-15.4l-18.3,1l-14,22.2l14.6-0.8l0.5,0l-0.1,0.2
				L407.2,519.8L407.2,519.8z M405.7,523.3"/>
		</g>
		<path class="st66" d="M433.2,496l7.6-0.4l1.9,32.7l-7.6,0.4L433.2,496z"/>
		<path class="st66" d="M446.9,536.8l-0.3-5.8c0.1,0,1.2,0,1.3-0.1c2.5-0.1,3.9-0.9,4.1-2.4l0.1-0.7l-9.6-23.7l8.4-0.5l5.5,18l0.2,0
			l3.4-18.5l8.1-0.5l-6.4,24.4c-1.7,6.5-5,9.1-11.9,9.5C449.6,536.7,447,536.8,446.9,536.8z"/>
		<path class="st66" d="M545.1,531.2l-0.3-5.8c0.1,0,1.2,0,1.3-0.1c2.5-0.1,3.9-0.9,4.1-2.4l0.1-0.7l-9.6-23.7l8.4-0.5l5.5,18l0.2,0
			l3.4-18.5l8.1-0.5l-6.4,24.4c-1.7,6.5-5,9.1-11.9,9.5C547.8,531.1,545.2,531.2,545.1,531.2z"/>
		<path class="st66" d="M486.8,525.7l-8.8,0.5l-9.5-23.5l8.2-0.5l5.3,17.3l0.2,0l3.2-17.8l8-0.5L486.8,525.7z"/>
		<path class="st66" d="M516.3,516.5c-0.5,5-4.7,8.4-10.9,8.7c-7.6,0.4-12.4-4-12.9-11.7c-0.4-7.7,3.9-12.9,11.2-13.3
			c7.2-0.4,12,4,12.5,11.3l0.1,2.2l-16.2,0.9l0,0.5c0.2,2.9,2.2,4.8,5.1,4.7c2.1-0.1,3.7-1.2,4.2-2.9L516.3,516.5z M499.9,510.2
			l8.9-0.5c-0.3-2.6-2.1-4.3-4.7-4.1C501.7,505.7,500,507.6,499.9,510.2z"/>
		<path class="st66" d="M526.3,519.3l-0.2,0l0.2,4.1l-7.6,0.4l-1.9-32.7l7.6-0.4l0.7,12.9l0.2,0c1.1-2.9,3.6-4.7,7-4.9
			c6.1-0.3,9.9,4,10.3,11.8c0.4,7.8-2.8,12.5-8.8,12.9C530.4,523.6,527.7,522.1,526.3,519.3z M525.7,511.5c0.2,3.8,2.2,6.2,5,6
			c2.8-0.2,4.5-2.7,4.3-6.6c-0.2-3.8-2.2-6.2-5-6C527.2,505.1,525.5,507.7,525.7,511.5z"/>
		<path class="st66" d="M577.1,491.2l0.3,5.3l4.3-0.2l0.3,5.7l-4.3,0.2l0.6,10.2c0.1,1.7,1.1,2.5,2.9,2.4c0.6,0,1.1-0.1,1.5-0.2
			l0.3,5.4c-0.7,0.2-1.9,0.4-3.3,0.5c-6.2,0.4-8.7-1.4-9-6.1l-0.7-11.8l-3.2,0.2l-0.3-5.7l3.2-0.2l-0.3-5.3L577.1,491.2z"/>
		<path class="st66" d="M606.6,511.3c-0.5,5-4.7,8.4-10.9,8.7c-7.6,0.4-12.4-4-12.9-11.7c-0.4-7.7,3.9-12.9,11.2-13.3
			c7.2-0.4,12,4,12.5,11.3l0.1,2.2l-16.2,0.9l0,0.5c0.2,2.9,2.2,4.8,5.1,4.7c2.1-0.1,3.7-1.2,4.2-2.9L606.6,511.3z M590.2,505.1
			l8.9-0.5c-0.3-2.6-2.1-4.3-4.7-4.1C591.9,500.6,590.2,502.5,590.2,505.1z"/>
	</g>
</g>
<g>
	<path class="st68" d="M463.5,453.1l6.2,5.6c13.9-15.5,37.7-16.9,53.2-3l5.6-6.2C509.5,432.4,480.4,434.1,463.5,453.1z M488.5,475.3
		l9.4,8.4l8.4-9.4C501.1,469.7,493.1,470.2,488.5,475.3z M476,464.2l6.2,5.6c7.7-8.6,20.9-9.4,29.6-1.7l5.6-6.2
		C505.3,451.1,486.8,452.1,476,464.2z"/>
	<g>
		<g>
			<g>
				<path class="st69" d="M407.2,519.8l-0.2,0.5l-9.5,19.4l31.7-28.7l-17.1,1l12.9-15.4l-18.3,1l-14,22.2l14.6-0.8l0.5,0l-0.1,0.2
					L407.2,519.8L407.2,519.8z M405.7,523.3"/>
			</g>
		</g>
		<path class="st70" d="M433.2,496l7.6-0.4l1.9,32.7l-7.6,0.4L433.2,496z"/>
		<path class="st70" d="M446.9,536.8l-0.3-5.8c0.1,0,1.2,0,1.3-0.1c2.5-0.1,3.9-0.9,4.1-2.4l0.1-0.7l-9.6-23.7l8.4-0.5l5.5,18l0.2,0
			l3.4-18.5l8.1-0.5l-6.4,24.4c-1.7,6.5-5,9.1-11.9,9.5C449.6,536.7,447,536.8,446.9,536.8z"/>
		<path class="st70" d="M545.1,531.2l-0.3-5.8c0.1,0,1.2,0,1.3-0.1c2.5-0.1,3.9-0.9,4.1-2.4l0.1-0.7l-9.6-23.7l8.4-0.5l5.5,18l0.2,0
			l3.4-18.5l8.1-0.5l-6.4,24.4c-1.7,6.5-5,9.1-11.9,9.5C547.8,531.1,545.2,531.2,545.1,531.2z"/>
		<path class="st70" d="M486.8,525.7l-8.8,0.5l-9.5-23.5l8.2-0.5l5.3,17.3l0.2,0l3.2-17.8l8-0.5L486.8,525.7z"/>
		<path class="st70" d="M516.3,516.5c-0.5,5-4.7,8.4-10.9,8.7c-7.6,0.4-12.4-4-12.9-11.7c-0.4-7.7,3.9-12.9,11.2-13.3
			c7.2-0.4,12,4,12.5,11.3l0.1,2.2l-16.2,0.9l0,0.5c0.2,2.9,2.2,4.8,5.1,4.7c2.1-0.1,3.7-1.2,4.2-2.9L516.3,516.5z M499.9,510.2
			l8.9-0.5c-0.3-2.6-2.1-4.3-4.7-4.1C501.7,505.7,500,507.6,499.9,510.2z"/>
		<path class="st70" d="M526.3,519.3l-0.2,0l0.2,4.1l-7.6,0.4l-1.9-32.7l7.6-0.4l0.7,12.9l0.2,0c1.1-2.9,3.6-4.7,7-4.9
			c6.1-0.3,9.9,4,10.3,11.8c0.4,7.8-2.8,12.5-8.8,12.9C530.4,523.6,527.7,522.1,526.3,519.3z M525.7,511.5c0.2,3.8,2.2,6.2,5,6
			c2.8-0.2,4.5-2.7,4.3-6.6c-0.2-3.8-2.2-6.2-5-6C527.2,505.1,525.5,507.7,525.7,511.5z"/>
		<path class="st70" d="M577.1,491.2l0.3,5.3l4.3-0.2l0.3,5.7l-4.3,0.2l0.6,10.2c0.1,1.7,1.1,2.5,2.9,2.4c0.6,0,1.1-0.1,1.5-0.2
			l0.3,5.4c-0.7,0.2-1.9,0.4-3.3,0.5c-6.2,0.4-8.7-1.4-9-6.1l-0.7-11.8l-3.2,0.2l-0.3-5.7l3.2-0.2l-0.3-5.3L577.1,491.2z"/>
		<path class="st70" d="M606.6,511.3c-0.5,5-4.7,8.4-10.9,8.7c-7.6,0.4-12.4-4-12.9-11.7c-0.4-7.7,3.9-12.9,11.2-13.3
			c7.2-0.4,12,4,12.5,11.3l0.1,2.2l-16.2,0.9l0,0.5c0.2,2.9,2.2,4.8,5.1,4.7c2.1-0.1,3.7-1.2,4.2-2.9L606.6,511.3z M590.2,505.1
			l8.9-0.5c-0.3-2.6-2.1-4.3-4.7-4.1C591.9,500.6,590.2,502.5,590.2,505.1z"/>
	</g>
</g>
<g>
	<defs>
		<path id="SVGID_35_" d="M313.5,382.1H658c14.8,0,26.8,12,26.8,26.8v179.8c0,14.8-12,26.8-26.8,26.8H313.5
			c-14.8,0-26.8-12-26.8-26.8V408.9C286.6,394.1,298.7,382.1,313.5,382.1z"/>
	</defs>
	<clipPath id="SVGID_36_">
		<use xlink:href="#SVGID_35_"  style="overflow:visible;"/>
	</clipPath>
	<g class="st71">
		<path class="st50" d="M671.3,491.5l21-11.8c-3.3-5.6-7.6-10.3-12.8-14.1c-5.6-3.8-11.8-5.8-18.1-5.8c-0.4,0-0.8,0-1.2,0v24.3
			c0.1,0,0.2,0,0.3-0.1C665,483.5,668.6,486,671.3,491.5z"/>
		<path class="st50" d="M678.4,498.7c-2.6-2.2-5.7-3.7-9.1-4.8l-9-2.9h0.2c-0.1,0-0.2-0.1-0.3-0.1v21.7l3.2,1c3.6,1.5,5.3,3.9,5,6.8
			c-0.3,3.6-2.2,5.6-5.7,6c-0.8,0.1-1.7,0.1-2.4,0v20.5c0.3,0,0.7,0,1,0c7.4,0,13.8-2.3,19.2-6.8c5.3-4.5,8.2-10.5,8.7-18.1v0.2
			C689.8,512.9,686.2,505,678.4,498.7z"/>
	</g>
	<g class="st71">
		<g>
			
				<rect x="282.5" y="390.9" transform="matrix(0.9815 -0.1914 0.1914 0.9815 -75.4168 68.3557)" class="st72" width="67.4" height="67.4"/>
			<path class="st50" d="M341.6,386.9l12.3,63.2l-63.2,12.3l-12.3-63.2L341.6,386.9 M344,383.4l-2.9,0.6l-63.2,12.3l-2.9,0.6
				l0.6,2.9l12.3,63.2l0.6,2.9l2.9-0.6l63.2-12.3l2.9-0.6l-0.6-2.9l-12.3-63.2L344,383.4L344,383.4z"/>
		</g>
		<path d="M330.5,440.3c1.7,1.8,3.6,3,6.6,2.5c2.5-0.5,3.8-2,3.5-3.7c-0.4-2-2.2-2.4-5.1-3.1l-1.6-0.3c-4.6-1-7.9-2.7-8.9-7.6
			c-0.9-4.5,1.9-8.5,7.2-9.5c3.8-0.7,6.7,0,9.4,3.1l-4,3.9c-1.4-1.6-2.6-2.1-4.3-1.8c-1.7,0.3-2.6,1.7-2.3,3.1
			c0.3,1.8,1.6,2.3,4.4,2.9l1.6,0.3c5.5,1.2,8.7,2.8,9.7,7.8c1,5.3-2.6,9.1-8.2,10.2c-5.5,1.1-9.6-0.9-12-4L330.5,440.3z
			 M309.6,444.9c1.3,1.5,2.4,2.7,4.4,2.3c2-0.4,3-1.4,2.5-4.4l-3.9-20.2l5.9-1.2l4,20.3c1.2,6.1-1.9,9.6-7.1,10.7
			c-4.8,0.9-8-1-10-3.7L309.6,444.9z"/>
	</g>
	<path id="XMLID_2_" class="st73" d="M692.6,421.1c0.6-1.6,0.8-3.1,0.6-4.6c-0.2-1.4-0.9-2.8-1.9-4.1c-8.7-10.7-17.5-21.5-26.3-32.2
		c-2.4-2.9-5.3-4-9-3.3c-5.5,0.9-32.7,5.2-40.8,6.5c-3.3,0.5-5.6,2.5-6.8,5.6c-5,13-9.9,26-14.9,39c-0.6,1.6-0.8,3.1-0.6,4.5
		c0.2,1.5,0.8,2.9,1.9,4.2c5.2,6.4,22.7,27.7,26.1,32.1c2.3,2.9,5.2,4.1,8.9,3.5c13.7-2.2,27.4-4.4,41.1-6.5
		c1.7-0.3,3.1-0.9,4.3-1.9c1.1-0.9,2-2.2,2.6-3.8C677.7,460.1,687.6,434.1,692.6,421.1"/>
	<g class="st71">
		<path id="XMLID_3_" class="st74" d="M688.8,421.3c0.6-1.5,0.7-2.9,0.5-4.3c-0.2-1.3-0.8-2.6-1.8-3.8c-8.1-9.9-16.2-19.9-24.3-29.8
			c-2.2-2.7-4.9-3.7-8.3-3.1c-5.1,0.9-30.2,4.8-37.8,6c-3.1,0.5-5.2,2.3-6.3,5.2c-4.6,12-9.2,24.1-13.8,36.1
			c-0.5,1.4-0.7,2.8-0.5,4.2c0.2,1.4,0.8,2.7,1.8,3.9c4.8,5.9,20.9,25.6,24.1,29.7c2.2,2.7,4.8,3.8,8.2,3.2c12.7-2,25.3-4,38-6.1
			c1.6-0.3,2.9-0.8,3.9-1.7c1-0.9,1.8-2,2.4-3.5C675.1,457.4,684.2,433.3,688.8,421.3"/>
		<path id="XMLID_4_" class="st19" d="M643.2,424.4l-46.5,7.4c0.2,1.4,0.8,2.7,1.8,3.9c4.8,5.9,20.9,25.6,24.1,29.7
			c2.2,2.7,4.8,3.8,8.2,3.2c12.7-2,25.3-4,38-6.1c1.6-0.3,2.9-0.8,3.9-1.7L643.2,424.4"/>
		<path id="XMLID_6_" class="st75" d="M688.8,421.3c0.6-1.5,0.7-2.9,0.5-4.3l-46.2,7.4l29.5,36.4c1-0.9,1.8-2,2.4-3.5
			C675.1,457.4,684.2,433.3,688.8,421.3"/>
		<path id="XMLID_9_" class="st50" d="M651.8,435.1c-3.7,3.1-8.9,4.1-13.7,2.3c-4.8-1.8-8-6-8.7-10.8c-0.4-2.3-0.1-4.7,0.7-7
			c2.7-7.1,10.7-10.7,17.8-8c4.8,1.8,7.9,6,8.7,10.7l13.7-2.2c-1.5-9.4-7.9-17.8-17.5-21.5c-14.3-5.5-30.3,1.7-35.7,16
			c-1.8,4.7-2.2,9.6-1.5,14.2c1.5,9.5,7.9,17.9,17.5,21.6c9.6,3.7,20,1.6,27.4-4.5L651.8,435.1"/>
		<g id="XMLID_32_">
			
				<rect id="XMLID_1_" x="665.8" y="427.2" transform="matrix(0.9343 0.3565 -0.3565 0.9343 198.4898 -209.3407)" class="st50" width="2.7" height="13.3"/>
			
				<rect id="XMLID_30_" x="671.5" y="429.3" transform="matrix(0.9343 0.3565 -0.3565 0.9343 199.6351 -211.2222)" class="st50" width="2.7" height="13.3"/>
			
				<rect id="XMLID_31_" x="669.7" y="425.4" transform="matrix(-0.3565 0.9343 -0.9343 -0.3565 1313.963 -40.907)" class="st50" width="2.7" height="13.3"/>
			
				<rect id="XMLID_23_" x="667.5" y="431.1" transform="matrix(-0.3565 0.9343 -0.9343 -0.3565 1316.3284 -31.1823)" class="st50" width="2.7" height="13.3"/>
		</g>
	</g>
	<path class="st73" d="M284.4,567.7l3.1,29l14.5-1.5l-2.3-21.8l7.2-0.8l2.3,21.8l7.2-0.8l-3.1-29L284.4,567.7 M320.7,563.9l3.8,36.3
		l14.5-1.5l-0.8-7.2l14.5-1.5l-3.1-29L320.7,563.9 M343.3,568.8l1.5,14.5l-7.2,0.8l-1.5-14.5L343.3,568.8 M357,560l3.1,29l14.5-1.5
		l-2.3-21.8l7.2-0.8l2.3,21.8l7.2-0.8l-2.3-21.8l7.2-0.8l2.3,21.8l7.2-0.8l-3.1-29L357,560 M276.4,561.2l130.7-13.9l4.6,43.6
		l-65.3,6.9l0.8,7.2l-29,3.1l-0.8-7.2l-36.3,3.8L276.4,561.2z"/>
	<g class="st71">
		<path class="st76" d="M341,452.6l-53.2,2.4l-12.2,65.7l33.7,35l47.6-10l26.8-61.2"/>
		<path class="st77" d="M341,452.6l-3.5,11.4l0-0.1l-28.2,91.7l47.6-10l26.8-61.2"/>
		<path class="st50" d="M337.5,463.9l-50.6,58l11.2,3.4l10.7-13.2l25.5,7.8l1.4,16.9l11.2,3.4L337.5,463.9L337.5,463.9z
			 M333.1,509.6l-17.5-5.4l15.2-18.4L333.1,509.6z"/>
	</g>
	<g class="st71">
		<path class="st78" d="M607,575.8l4.1-37.9l75.8,8.2l-8.2,75.8l-75.8-8.2"/>
		<path class="st50" d="M623.6,577.8l-0.3,3.1l9.9,1.1l-3,28l7,0.8l3-28l9.9,1.1l0.3-3c0.2-1.7,0.3-3.1,0.3-3.1
			c0-0.1-6-0.7-13.3-1.5l-13.3-1.4L623.6,577.8L623.6,577.8z M668.2,579.4c1.9,0.7,3.3,1.7,4.4,3.2c0.6,0.8,1.5,2.3,1.6,2.6
			c0,0.1-3.5,2-5.7,3c-0.1,0-0.4-0.3-0.6-0.8c-0.8-1.5-1.8-2.2-3.3-2.5c-2.3-0.4-3.9,0.6-4.1,2.6c-0.1,0.6,0,1,0.2,1.5
			c0.4,1.1,1.3,1.8,4.1,3.4c5.2,2.9,7.3,4.7,8.5,7.1c1.3,2.6,1.3,6.5-0.1,9.3c-1.6,3-4.7,4.9-9,5.1c-1.4,0.1-4.4-0.3-5.8-0.7
			c-3-0.9-5.7-2.7-7.3-4.9c-0.6-0.8-1.7-3-1.7-3.1l0.8-0.4l3-1.3l2.3-1l0.4,0.7c0.5,1.1,1.8,2.5,2.5,3.1c2.3,1.5,5.6,1.7,7.4,0.4
			c0.8-0.6,1.1-1.2,1.3-2.2c0.1-0.9,0-1.3-0.4-2c-0.5-0.9-1.7-1.7-4.9-3.6c-3.7-2.1-5.3-3.3-6.7-5.1c-0.8-1.1-1.4-2.7-1.7-4
			c-0.2-1.1,0-3.8,0.4-4.9c1.2-3.7,4.4-6,8.5-6.4C663.9,578.4,667,578.9,668.2,579.4L668.2,579.4z"/>
	</g>
	<polygon class="st73" points="544.6,376 544.5,376.1 544.5,376.1 544.5,376.1 495,395.3 504.5,461.3 547.5,483.5 547.5,483.6 
		547.6,483.5 547.6,483.6 589.3,458.9 595.1,392.5 	"/>
	<g id="ngrx" class="st71">
		<polyline id="Shape_4_" class="st79" points="544.6,378.2 497,396.7 506.1,460 547.5,481.4 587.6,457.7 593.1,394 		"/>
		<polyline id="Shape_3_" class="st80" points="544.5,378.2 544.8,389.6 544.8,389.6 547.4,481.4 587.5,457.7 593.1,394 		"/>
		<path id="path4" class="st81" d="M535.6,400.2c-0.1,0-0.3,0.1-0.4,0.1c-0.1,0-0.3,0.1-0.4,0.1c-0.1,0-0.3,0.1-0.4,0.1
			c-0.1,0.1-0.2,0.1-0.3,0.1c-0.1,0-0.2,0.1-0.3,0.1c-0.1,0.1-0.2,0.1-0.2,0.2c-0.1,0-0.2,0.1-0.2,0.2c-0.1,0.1-0.1,0.1-0.2,0.1
			c0,0-0.1,0-0.1,0.1s-0.1,0.1-0.1,0.1c-0.1,0-0.1,0.1-0.1,0.2c0,0.1-0.1,0.1-0.1,0.1c0,0-0.1,0-0.1,0.1c0,0-0.1,0.1-0.1,0.2
			c-0.1,0.1-0.1,0.2-0.1,0.2c0,0,0,0.1-0.1,0.1c-0.1,0-0.1,0.1-0.1,0.1c0,0.1-0.3,0.4-0.9,1.1c-0.2,0.3-0.5,0.5-0.6,0.6
			c-0.1,0.1-0.1,0.1-0.2,0.1s-0.1,0.1-0.3,0.2s-0.2,0.2-0.3,0.2c0,0-0.1,0-0.1,0.1c0,0.1-0.2,0.1-0.2,0.2c-0.1,0-0.2,0.1-0.3,0.2
			c-0.2,0.2-0.4,0.3-0.6,0.4c-0.1,0-0.2,0.1-0.2,0.1c0,0.1-0.1,0.1-0.2,0.1c-0.1,0-0.2,0.1-0.2,0.1c0,0-0.2,0.1-0.3,0.1
			c-0.1,0-0.3,0.1-0.4,0.2c-0.1,0.1-0.2,0.1-0.4,0.1c-0.1,0-0.3,0.1-0.3,0.1c-0.1,0-0.3,0.1-0.7,0.1c-0.3,0-0.7,0.1-0.7,0.1
			c-0.1,0-0.4,0.1-0.8,0.2c-0.4,0-0.7,0.1-0.7,0.1c-0.1,0-0.3,0.1-0.4,0.1c-0.2,0-0.3,0.1-0.4,0.2c0,0.1-0.1,0.1-0.2,0.1
			c-0.1,0-0.2,0.1-0.2,0.1c0,0.1-0.1,0.1-0.2,0.1c-0.1,0-0.7,0.6-0.7,0.7c0,0,0,0.1-0.1,0.1c-0.1,0.1-0.1,0.2-0.2,0.3
			c0,0.1-0.1,0.2-0.1,0.2c0,0-0.1,0.2-0.1,0.5c0,0.2-0.1,0.6-0.1,0.7c-0.1,0.2-0.1,0.7,0,2.4c0,2.1,0,2.1-0.1,2.3
			c-0.1,0.1-0.1,0.3-0.2,0.4c0,0.1-0.1,0.2-0.1,0.2c0,0-0.1,0.1-0.1,0.1c-0.1,0.2-1.2,1.4-1.6,1.8c-0.1,0.1-0.3,0.2-0.3,0.3
			c-0.1,0.1-0.2,0.2-0.3,0.3c-0.1,0.1-0.8,0.8-1.1,1.2c-0.1,0.1-0.1,0.1-0.1,0.2c0,0-0.1,0.1-0.1,0.2c-0.1,0.1-0.1,0.2-0.1,0.3
			s0,0.1-0.1,0.2c-0.1,0.1-0.1,0.2-0.1,0.4c0,0.2-0.1,0.3-0.1,0.3c-0.1,0.1-0.1,1.1,0,1.4c0,0.1,0.1,0.5,0.2,0.8
			c0,0.3,0.1,0.6,0.1,0.7c0,0.1,0.1,0.3,0.1,0.5c0,0.3,0.1,0.4,0.2,0.5c0.1,0.1,0.1,0.2,0.1,0.3c0,0.1,0.1,0.2,0.1,0.3
			c0.1,0.1,0.1,0.2,0.1,0.3c0,0.1,0.1,0.2,0.1,0.2c0.1,0,0.1,0.1,0.1,0.2c0,0.1,0.1,0.3,0.1,0.4c0.1,0.4,0.2,1.6,0.1,1.9
			c0,0.1-0.1,0.3-0.1,0.4s-0.1,0.3-0.1,0.4c-0.1,0.1-0.1,0.2-0.1,0.2c0,0.1-0.3,0.6-0.4,0.7c0,0-0.1,0.1-0.1,0.1
			c0,0.1,0,0.1-0.1,0.2c-0.1,0-0.1,0.1-0.1,0.1c0,0-0.1,0.2-0.1,0.2c-0.1,0.1-0.2,0.3-0.2,0.4c0,0.1-0.1,0.2-0.1,0.3
			c-0.1,0.1-0.1,0.8,0,1c0,0.1,0.1,0.3,0.1,0.5c0,0.3,0.1,0.4,0.2,0.5c0.1,0.1,0.1,0.2,0.1,0.3c0,0.1,0.1,0.2,0.1,0.2
			c0.1,0.1,0.1,0.1,0.1,0.2c0,0.1,0.1,0.2,0.2,0.3c0.1,0.1,0.3,0.3,0.3,0.4c0,0.1,0.1,0.2,0.2,0.2c0.1,0,0.1,0.1,0.1,0.1
			c0,0,0,0.1,0.1,0.1s0.1,0.1,0.1,0.2s0.1,0.1,0.1,0.1c0,0,0.1,0,0.1,0.1c0,0,0.1,0.1,0.1,0.2c0.1,0.1,0.2,0.2,0.4,0.4
			c0.2,0.2,0.4,0.4,0.5,0.6c0.1,0.1,0.3,0.3,0.3,0.4c0,0.1,0.1,0.2,0.1,0.3c0.1,0.1,0.1,0.2,0.1,0.4c0,0.1,0.1,0.3,0.1,0.3
			c0.1,0,0.1,0.2,0.2,0.5c0,0.1,0.1,0.3,0.1,0.3c0.1,0.1,0.1,0.2,0.1,0.3c0,0.1,0.1,0.2,0.1,0.2c0.1,0,0.2,0.2,0.2,0.5
			c0,0.1,0.1,0.2,0.1,0.2c0,0,0.1,0.1,0.1,0.2c0,0.1,0.1,0.3,0.2,0.3s0.1,0.2,0.1,0.2c0,0.1,0.1,0.2,0.1,0.3
			c0.1,0.1,0.1,0.2,0.2,0.3c0,0.1,0.1,0.2,0.1,0.2c0.1,0.1,0.1,0.2,0.1,0.2c0,0.1,0.1,0.2,0.1,0.2c0.1,0.1,0.1,0.2,0.2,0.3
			c0,0.1,0.1,0.1,0.1,0.2c0,0,0.1,0.1,0.1,0.2c0,0.1,0.1,0.2,0.2,0.3c0.1,0,0.1,0.1,0.1,0.1c0,0,0.1,0.1,0.1,0.2
			c0.1,0,0.1,0.2,0.2,0.3s0.1,0.2,0.1,0.2c0,0,0.1,0.1,0.3,0.3c0.1,0.2,0.3,0.4,0.3,0.4c0.2,0.2,0.4,0.5,0.4,0.6
			c0,0.1,0.1,0.2,0.2,0.2c0.1,0.1,0.2,0.2,0.2,0.2c0.3,0.3,0.5,0.6,0.6,0.7c0.1,0.1,0.1,0.1,0.1,0.2c0,0,0.1,0.1,0.1,0.1
			c0.1,0,0.1,0.1,0.1,0.1c0,0,0.1,0.1,0.1,0.2c0.1,0.1,0.3,0.3,0.4,0.4c0.1,0.2,0.4,0.4,0.5,0.6c0.2,0.2,0.3,0.3,0.3,0.3
			c0,0,0,0.1,0.1,0.1c0.1,0,0.5,0.4,0.5,0.4c0,0,0,0.1,0.1,0.1c0.1,0,0.4,0.3,0.5,0.4c0,0.1,0.1,0.1,0.1,0.1c0.1,0,0.2,0.1,1,0.8
			c0.2,0.1,0.3,0.2,0.3,0.2c0,0,0.1,0,0.1,0.1c0,0.1,0.1,0.1,0.1,0.1c0,0,0.1,0.1,0.2,0.1c0,0.1,0.1,0.1,0.2,0.1
			c0,0,0.1,0.1,0.2,0.1s0.3,0.2,0.4,0.3c0.1,0.1,0.3,0.2,0.4,0.3c0.1,0.1,0.3,0.2,0.4,0.3c0.3,0.1,0.6,0.3,0.6,0.4
			c0,0,0.1,0.1,0.2,0.1s0.2,0.1,0.2,0.1c0,0,0.1,0.1,0.1,0.1c0,0,0.1,0.1,0.2,0.1c0.1,0.1,0.2,0.1,0.2,0.1c0,0,0.1,0,0.2,0.1
			c0.1,0.1,0.1,0.1,0.2,0.1c0,0,0.1,0.1,0.2,0.1c0.1,0.1,0.2,0.1,0.3,0.1c0,0,0.1,0,0.2,0.1c0.1,0.1,0.1,0.1,0.2,0.1
			c0,0,0.1,0.1,0.2,0.1c0.1,0.1,0.2,0.1,0.3,0.2c0.1,0,0.2,0.1,0.2,0.1c0,0,0.1,0.1,0.1,0.1s0.1,0.1,0.2,0.1
			c0.1,0.1,0.2,0.1,0.3,0.2c0.1,0,0.2,0.1,0.3,0.1c0.1,0,0.2,0.1,0.3,0.1c0.1,0,0.2,0.1,0.2,0.1c0,0,0.1,0.1,0.3,0.1
			c0.1,0,0.3,0.1,0.3,0.1c0,0,0.1,0.1,0.2,0.1c0.1,0,0.2,0.1,0.3,0.1s0.2,0.1,0.3,0.1c0.1,0,0.3,0.1,0.3,0.1c0,0,0.2,0.1,0.3,0.1
			c0.1,0,0.2,0.1,0.3,0.1c0,0,0.2,0.1,0.4,0.1c0.2,0,0.3,0.1,0.4,0.1c0,0,0.2,0.1,0.3,0.1c0.1,0,0.2,0.1,0.3,0.1
			c0.1,0.1,0.2,0.1,0.4,0.1c0.2,0,0.4,0.1,0.4,0.1c0,0,0.2,0.1,0.3,0.1c0.1,0,0.3,0.1,0.4,0.1c0.1,0.1,0.3,0.1,0.5,0.1
			c0.2,0,0.5,0.1,0.5,0.1c0.1,0,0.3,0.1,0.5,0.1c0.2,0,0.4,0.1,0.4,0.1c0.1,0.1,0.3,0.1,0.6,0.1c0.3,0,0.6,0.1,0.7,0.1
			c0.1,0,0.4,0.1,0.8,0.1c0.3,0,0.7,0.1,0.7,0.1c0.4,0.2,6.4,0,6.8-0.2c0.1-0.1,0.4-0.1,0.8-0.2c0.3,0,0.7-0.1,0.8-0.1
			c0.1,0,0.4-0.1,0.7-0.1c0.4,0,0.6-0.1,0.7-0.2c0,0,0.3-0.1,0.5-0.1c0.2,0,0.4-0.1,0.5-0.1c0.1,0,0.3-0.1,0.6-0.1
			c0.2,0,0.4-0.1,0.5-0.1c0-0.1,0.2-0.2,0.5-0.2c0.1,0,0.3-0.1,0.3-0.1c0.1,0,0.3-0.1,0.4-0.1c0.2,0,0.4-0.1,0.4-0.2
			c0-0.1,0.2-0.1,0.3-0.1c0.1,0,0.3-0.1,0.3-0.1c0,0,0.2-0.1,0.3-0.1c0.1,0,0.3-0.1,0.3-0.1c0.1,0,0.2-0.1,0.3-0.1s0.2-0.1,0.3-0.2
			c0.1-0.1,0.2-0.1,0.3-0.1c0.1,0,0.2-0.1,0.2-0.1c0,0,0.1-0.1,0.2-0.1c0.1,0,0.2-0.1,0.3-0.1c0,0,0.1-0.1,0.3-0.1
			c0.1,0,0.2-0.1,0.3-0.1c0-0.1,0.3-0.2,0.6-0.4c0.1,0,0.2-0.1,0.3-0.2c0.1-0.1,0.2-0.1,0.2-0.1c0.1,0,0.2-0.1,0.2-0.1
			c0.1-0.1,0.2-0.1,0.2-0.1s0.2-0.1,0.3-0.2c0.1-0.1,0.2-0.2,0.2-0.2c0,0,0.2-0.1,0.3-0.2c0.1,0,0.2-0.1,0.2-0.1s0.1-0.1,0.1-0.1
			c0.1,0,0.2-0.1,0.3-0.2c0.2-0.2,0.5-0.4,0.5-0.4c0,0,0.1,0,0.1-0.1c0-0.1,0.1-0.1,0.2-0.1c0.1,0,0.1-0.1,0.1-0.1s0-0.1,0.1-0.1
			c0,0,0.1-0.1,0.2-0.1c0.1-0.1,0.1-0.1,0.2-0.2c0.4-0.3,1-0.9,1-1c0-0.1,0.1-0.1,0.1-0.1c0,0,0.1-0.1,0.1-0.1
			c0-0.1,0.1-0.1,0.1-0.1c0.1,0,0.1-0.1,0.1-0.1c0,0,0.1-0.2,0.3-0.4c0.3-0.4,0.3-0.3,0.8-0.9c0.2-0.2,0.4-0.5,0.4-0.5
			c0,0,0.1-0.1,0.1-0.1c0,0,0-0.1,0.1-0.1c0.1,0,0.1-0.1,0.1-0.2s0.1-0.1,0.1-0.1c0.1,0,0.1-0.1,0.1-0.2c0-0.1,0.1-0.2,0.2-0.3
			c0.1-0.1,0.1-0.2,0.1-0.2c0,0,0-0.1,0.1-0.1c0.1-0.1,0.1-0.1,0.2-0.2c0.1-0.3,0.3-0.5,0.4-0.5c0,0,0.1-0.2,0.2-0.2
			c0-0.1,0.1-0.3,0.2-0.4c0.1-0.1,0.1-0.2,0.2-0.2c0,0,0.1-0.1,0.1-0.1c0-0.1,0.3-0.7,0.4-0.7c0,0,0.1-0.1,0.1-0.2
			c0-0.1,0.1-0.2,0.1-0.2c0,0,0.1-0.2,0.2-0.3c0.1-0.2,0.2-0.3,0.3-0.7c0-0.1,0.1-0.2,0.1-0.3c0-0.1,0.1-0.2,0.1-0.2
			c0,0,0.1-0.2,0.1-0.3c0-0.1,0.1-0.2,0.1-0.3c0,0,0.1-0.1,0.1-0.2s0.1-0.2,0.1-0.3c0.1-0.1,0.1-0.2,0.1-0.4c0-0.1,0.1-0.3,0.1-0.3
			c0,0,0.1-0.1,0.1-0.2c0-0.1,0-0.2,0-0.1c0,0-0.1,0.1-0.1,0.1c-0.1,0-0.2,0.1-0.3,0.2c-0.3,0.3-0.4,0.4-0.6,0.4
			c-0.1,0-0.1,0.1-0.1,0.1c0,0.1-0.5,0.4-0.6,0.5c-0.1,0-0.1,0.1-0.1,0.1c0,0.1-0.5,0.4-0.7,0.5c-0.1,0-0.1,0.1-0.1,0.1
			c0,0-0.1,0.1-0.2,0.2c-0.1,0.1-0.2,0.1-0.2,0.2c0,0-0.1,0.1-0.2,0.1c-0.1,0-0.2,0.1-0.3,0.2c0,0.1-0.2,0.1-0.2,0.1
			c-0.1,0-0.2,0.1-0.2,0.1c0,0-0.1,0.1-0.2,0.1c-0.1,0-0.2,0.1-0.3,0.2c0,0.1-0.1,0.1-0.2,0.1c-0.1,0-0.2,0.1-0.2,0.1
			c0,0.1-0.2,0.1-0.3,0.1c-0.1,0-0.2,0.1-0.3,0.1c0,0.1-0.1,0.1-0.2,0.1c-0.1,0-0.2,0.1-0.3,0.1c0,0-0.2,0.1-0.3,0.1
			c-0.1,0-0.3,0.1-0.3,0.2c-0.1,0.1-0.2,0.1-0.3,0.1c-0.1,0-0.2,0.1-0.2,0.1c0,0.1-0.3,0.1-0.6,0.2c-0.1,0-0.3,0.1-0.3,0.1
			c-0.1,0.1-0.3,0.1-0.4,0.1c-0.2,0-0.4,0.1-0.4,0.1c-0.3,0.2-1,0.1-0.8-0.1c0-0.1,0.1-0.1,0.2-0.1c0,0,0.1,0,0.1-0.1
			c0-0.1,0.5-0.5,0.6-0.5c0,0,0.1,0,0.1-0.1c0-0.1,0.2-0.1,0.3-0.2c0.1,0,0.2-0.1,0.2-0.1c0,0,0.1-0.1,0.1-0.1
			c0.1,0,0.2-0.1,0.3-0.2c0.3-0.3,0.5-0.4,0.5-0.4c0,0,0.1-0.1,0.2-0.1c0.3-0.3,0.4-0.4,0.5-0.4c0.1,0,0.1-0.1,0.1-0.1
			c0-0.1,0.1-0.1,0.1-0.1c0,0,0.1-0.1,0.2-0.1s0.1-0.1,0.2-0.1s0.1-0.1,0.2-0.1c0.1-0.1,0.3-0.3,0.6-0.5c0.6-0.6,1.1-1.1,1.8-1.9
			c0.1-0.1,0.2-0.3,0.3-0.4c0.1-0.1,0.2-0.3,0.3-0.4c0.2-0.3,0.4-0.6,0.4-0.6c0,0,0.1-0.1,0.1-0.1c0-0.1,0.1-0.2,0.2-0.3
			c0.1-0.1,0.1-0.2,0.1-0.2c0,0,0.1-0.1,0.1-0.2c0.1-0.1,0.1-0.2,0.1-0.2c0,0,0.1-0.2,0.1-0.2c0.1-0.1,0.1-0.2,0.1-0.2
			c0,0,0-0.1,0.1-0.1c0.1,0,0.1-0.1,0.1-0.2c0-0.1,0.1-0.2,0.1-0.3c0-0.1,0.1-0.2,0.1-0.3c0-0.1,0.1-0.2,0.1-0.2
			c0,0,0.1-0.2,0.1-0.3c0-0.1,0.1-0.3,0.1-0.3c0,0,0.1-0.2,0.1-0.3c0-0.1,0.1-0.2,0.1-0.3c0-0.1,0.1-0.2,0.1-0.4
			c0-0.2,0.1-0.3,0.1-0.4c0,0,0.1-0.2,0.1-0.3c0-0.1,0.1-0.3,0.1-0.4c0.1-0.1,0.1-0.3,0.1-0.6c0-0.3,0.1-0.5,0.1-0.6
			c0-0.1,0.1-0.4,0.1-0.7c0-0.4,0.1-0.6,0.1-0.7c0.1-0.1,0-4.5-0.1-5.1l0-0.3l-0.1,0.2c0,0.1-0.1,0.3-0.1,0.3c0,0.1-0.1,0.2-0.1,0.2
			s-0.1,0.2-0.1,0.2c0,0-0.1,0.1-0.1,0.2c0,0.1-0.1,0.2-0.1,0.3c0,0.1-0.1,0.2-0.1,0.2c0,0.1-0.1,0.2-0.2,0.3
			c-0.1,0.1-0.1,0.2-0.1,0.2c0,0-0.1,0.2-0.1,0.3c-0.1,0.1-0.1,0.2-0.1,0.2c0,0,0,0.1-0.1,0.1c-0.1,0-0.1,0.1-0.1,0.2
			c0,0.1-0.1,0.2-0.1,0.3c-0.1,0.1-0.1,0.1-0.1,0.2c0,0-0.1,0.2-0.1,0.3s-0.1,0.2-0.1,0.3c0,0,0,0.1-0.1,0.2
			c-0.1,0.1-0.1,0.1-0.1,0.2s-0.1,0.1-0.1,0.2c-0.1,0.1-0.2,0.2-0.2,0.3c0,0.1-0.1,0.1-0.1,0.1c0,0-0.1,0.1-0.1,0.2
			c0,0.1-0.1,0.2-0.2,0.3c-0.1,0.1-0.1,0.1-0.1,0.2c0,0,0,0.1-0.1,0.1c-0.1,0-0.1,0.1-0.1,0.1c0,0-0.1,0.1-0.1,0.2
			c-0.1,0.1-0.2,0.2-0.2,0.3c0,0.1-0.1,0.2-0.1,0.2c0,0-0.1,0.1-0.1,0.1c0,0.1-0.1,0.1-0.1,0.1c0,0-0.1,0.1-0.1,0.1
			c0,0.1-0.3,0.5-0.4,0.5c0,0-0.1,0-0.1,0.1c0,0-0.1,0.2-0.2,0.3c-0.1,0.1-0.3,0.3-0.4,0.4c-0.3,0.3-0.7,0.4-0.5,0
			c0.1-0.1,0.1-0.2,0.1-0.2c0,0,0.1-0.2,0.1-0.3c0.1-0.1,0.1-0.2,0.1-0.2c0,0,0-0.1,0.1-0.1c0.1,0,0.1-0.2,0.1-0.3
			c0-0.1,0.1-0.2,0.1-0.3s0.1-0.1,0.1-0.2c0-0.1,0.1-0.2,0.1-0.3c0.1-0.1,0.1-0.2,0.1-0.3c0-0.1,0.1-0.2,0.1-0.3
			c0,0,0.1-0.2,0.1-0.3c0-0.1,0.1-0.2,0.1-0.2c0,0,0.1-0.1,0.1-0.3c0-0.1,0.1-0.3,0.1-0.4c0-0.1,0.1-0.2,0.1-0.3
			c0-0.1,0.1-0.2,0.1-0.3c0-0.1,0.1-0.2,0.1-0.4c0-0.2,0.1-0.4,0.1-0.4c0-0.1,0.1-0.3,0.1-0.4c0-0.2,0.1-0.3,0.1-0.4
			c0-0.1,0.1-0.3,0.1-0.6c0-0.3,0.1-0.6,0.1-0.7c0-0.1,0.1-0.4,0.1-0.8c0-0.4,0.1-0.8,0.1-1c0.1-0.4,0.1-1.3,0-1.7
			c0-0.2-0.1-0.6-0.2-1c0-0.4-0.1-0.8-0.2-0.9c0-0.1-0.1-0.4-0.1-0.6c0-0.3-0.1-0.5-0.2-0.6c-0.1-0.1-0.1-0.2-0.1-0.3
			c0-0.1-0.1-0.3-0.1-0.3c0,0-0.1-0.2-0.1-0.3c0-0.1-0.1-0.3-0.1-0.3c0,0-0.1-0.2-0.2-0.3c0-0.1-0.1-0.2-0.2-0.3
			c-0.1-0.1-0.1-0.2-0.1-0.3c0-0.1-0.1-0.2-0.1-0.2c0,0-0.1-0.1-0.2-0.2c-0.1-0.1-0.1-0.2-0.2-0.2c0,0-0.1-0.1-0.1-0.2
			c0-0.1-0.1-0.2-0.2-0.3c-0.3-0.3-0.3-0.3-0.4-0.5c0-0.1-0.1-0.2-0.2-0.2c0,0-0.1-0.1-0.1-0.1c0-0.1,0-0.1,0,0.1
			c0,0.1,0,0.3,0.1,0.4c0,0.1,0.1,0.4,0.2,0.7c0,0.4,0.1,0.6,0.1,0.7c0.1,0.1,0.1,0.4,0.2,0.9c0,0.4,0.1,0.9,0.2,1
			c0.1,0.4,0.2,3.1,0.1,3.4c0,0.1-0.1,0.6-0.1,1c0,0.5-0.1,0.8-0.1,0.9c0,0.1-0.1,0.3-0.1,0.7c0,0.3-0.1,0.6-0.1,0.7
			c0,0.1-0.1,0.3-0.1,0.5c0,0.2-0.1,0.3-0.1,0.4c0,0-0.1,0.2-0.1,0.4c0,0.2-0.1,0.4-0.1,0.4c0,0.1-0.1,0.3-0.1,0.4
			c0,0.1-0.1,0.2-0.1,0.3c-0.1,0.1-0.1,0.2-0.1,0.4c0,0.1-0.1,0.3-0.1,0.3c0,0-0.1,0.2-0.1,0.3c0,0.1-0.1,0.2-0.1,0.2
			c0,0-0.1,0.1-0.1,0.2c0,0.1-0.1,0.3-0.1,0.3c-0.1,0.1-0.1,0.2-0.1,0.3c0,0.1-0.1,0.2-0.1,0.2c0,0-0.1,0.1-0.1,0.2
			c0,0.1-0.1,0.2-0.1,0.3c0,0.1-0.1,0.2-0.1,0.2c0,0.1-0.1,0.2-0.2,0.3c-0.1,0.1-0.1,0.2-0.1,0.2c0,0.1-0.2,0.5-0.4,0.7
			c-0.1,0.1-0.1,0.2-0.1,0.2c0,0.1-0.1,0.3-0.4,0.5c-0.1,0.1-0.1,0.2-0.1,0.2c0,0-0.1,0.1-0.1,0.2s-0.1,0.2-0.1,0.2
			c0,0-0.1,0.1-0.1,0.2c-0.1,0.1-0.2,0.2-0.2,0.3s-0.2,0.2-0.2,0.3c-0.1,0.1-0.2,0.3-0.3,0.4c-0.1,0.1-0.3,0.4-0.4,0.5
			c-0.1,0.1-0.2,0.3-0.2,0.3c0,0-0.1,0.1-0.1,0.1c-0.1,0-0.1,0.1-0.1,0.1c0,0,0,0.1-0.1,0.2c-0.1,0.1-0.1,0.1-0.2,0.2
			c-0.1,0.1-0.1,0.1-0.4,0.4c-0.1,0.1-0.2,0.2-0.3,0.3c0,0-0.1,0.1-0.3,0.3c-0.1,0.1-0.2,0.2-0.3,0.3c0,0-0.1,0.2-0.3,0.3
			c-0.1,0.1-0.3,0.3-0.4,0.5c-0.1,0.1-0.3,0.2-0.3,0.2c0,0-0.1,0.1-0.1,0.1c0,0.1-0.1,0.1-0.1,0.1s-0.1,0.1-0.2,0.1
			c-0.1,0.1-0.2,0.2-0.2,0.2c-0.1,0-0.2,0.2-0.3,0.3c-0.1,0.1-0.3,0.3-0.4,0.3c-0.1,0.1-0.2,0.2-0.3,0.3l-0.2,0.2l0.3,0
			c0.6,0.1,3-0.1,3.2-0.2c0.1-0.1,0.3-0.1,0.5-0.2c0.2,0,0.4-0.1,0.5-0.1c0.1,0,0.3-0.1,0.5-0.1c0.2,0,0.4-0.1,0.5-0.2
			c0.1-0.1,0.2-0.1,0.3-0.1c0.1,0,0.2-0.1,0.2-0.1c0,0,0.1-0.1,0.2-0.1s0.3-0.1,0.3-0.1c0.1-0.1,0.2-0.1,0.3-0.2
			c0.1,0,0.2-0.1,0.3-0.2c0.1-0.1,0.2-0.1,0.3-0.1c0.1,0,0.2-0.1,0.2-0.1c0-0.1,0.1-0.1,0.2-0.1c0.1,0,0.1-0.1,0.1-0.1
			c0,0,0.1-0.1,0.2-0.2c0.1-0.1,0.2-0.1,0.3-0.2c0,0,0.1-0.1,0.1-0.1c0.1,0,0.1,0,0.2-0.1c0.1-0.1,0.2-0.1,0.3,0c0,0,0,0.1-0.1,0.1
			c-0.1,0.1-0.1,0.1-0.1,0.2c0,0.1,0,0.1-0.1,0.1c0,0-0.1,0.1-0.2,0.2c-0.1,0.1-0.2,0.2-0.3,0.3c0,0-0.2,0.2-0.3,0.3
			c-0.1,0.1-0.3,0.3-0.3,0.3s-0.1,0-0.1,0.1c-0.1,0.1-0.8,0.8-0.9,0.8c0,0-0.1,0-0.1,0.1c0,0.1-0.1,0.1-0.1,0.1
			c-0.1,0-0.1,0.1-0.2,0.1c0,0.1-0.1,0.1-0.1,0.1c0,0-0.1,0.1-0.2,0.1c-0.2,0.2-0.3,0.3-0.5,0.4c-0.1,0-0.2,0.1-0.3,0.2
			c-0.1,0.1-0.2,0.2-0.2,0.2c0,0-0.1,0.1-0.2,0.1c-0.1,0-0.2,0.1-0.3,0.2c-0.2,0.2-0.4,0.4-0.5,0.4c-0.1,0-0.2,0.1-0.2,0.1
			c0,0.1-0.1,0.1-0.2,0.1c-0.1,0-0.2,0.1-0.2,0.1s-0.1,0.1-0.2,0.1c-0.1,0-0.1,0-0.2,0.1c-0.1,0.2-0.6,0.4-0.8,0.5
			c-0.1,0-0.2,0.1-0.2,0.1c0,0-0.1,0.1-0.2,0.1c-0.1,0.1-0.2,0.1-0.3,0.2s-0.2,0.1-0.2,0.1c-0.1,0-0.2,0.1-0.3,0.1
			c-0.1,0.1-0.2,0.1-0.2,0.1c0,0-0.1,0.1-0.3,0.1c-0.1,0.1-0.3,0.1-0.4,0.2c-0.1,0-0.2,0.1-0.3,0.1s-0.2,0.1-0.3,0.1
			c-0.1,0-0.2,0.1-0.3,0.1c0,0-0.2,0.1-0.4,0.1c-0.2,0-0.4,0.1-0.5,0.2c-0.1,0.1-0.3,0.1-0.4,0.1c-0.1,0-0.3,0.1-0.4,0.1
			c-0.1,0-0.3,0.1-0.6,0.1c-0.3,0-0.5,0.1-0.5,0.1c-0.1,0.1-0.3,0.1-0.6,0.1c-0.3,0-0.6,0.1-0.7,0.1c-0.1,0.1-0.5,0.1-1.2,0.2
			c-0.6,0-1,0.1-1,0.1c0,0,0.2,0.3,0.4,0.4c0.1,0,0.1,0.1,0.1,0.1c0,0,0.1,0.1,0.2,0.2c0.4,0.3,0.5,0.4,0.6,0.5
			c0.1,0.1,0.1,0.1,0.2,0.1c0,0,0.1,0,0.2,0.1c0.1,0.1,0.2,0.1,0.3,0.2c0.1,0.1,0.2,0.1,0.2,0.1c0,0,0.1,0.1,0.1,0.1
			c0.1,0,0.2,0.1,0.3,0.2c0.1,0.1,0.2,0.1,0.2,0.1c0,0,0.2,0.1,0.3,0.1c0.1,0.1,0.2,0.1,0.2,0.1c0,0,0.1,0,0.2,0.1
			c0.1,0.1,0.2,0.1,0.4,0.1c0.2,0,0.3,0.1,0.4,0.1c0,0,0.2,0.1,0.3,0.1c0.1,0,0.3,0.1,0.4,0.1c0.1,0.1,0.3,0.1,0.6,0.1
			c0.3,0,0.5,0.1,0.6,0.1c0.1,0.1,0.3,0.1,1.7,0.1c0.5,0,0.9,0,1,0.1l0.2,0l-0.2,0.1c-0.1,0.1-0.2,0.1-0.2,0.1c0,0.1-0.3,0.2-1,0.3
			c-0.4,0-0.7,0.1-0.8,0.2c-0.3,0.2-5.3,0.4-5.7,0.2c-0.1-0.1-0.3-0.1-0.8-0.1c-0.4,0-0.7-0.1-0.8-0.1c-0.1,0-0.3-0.1-0.5-0.1
			c-0.2,0-0.4-0.1-0.5-0.1c-0.1-0.1-0.3-0.1-0.5-0.1c-0.2,0-0.4-0.1-0.5-0.1c0,0-0.2-0.1-0.3-0.1c-0.1,0-0.3-0.1-0.3-0.1
			c-0.1-0.1-0.2-0.1-0.4-0.1c-0.1,0-0.3-0.1-0.4-0.1c-0.1,0-0.2-0.1-0.3-0.1c-0.1,0-0.2-0.1-0.3-0.1c-0.1-0.1-0.2-0.1-0.3-0.1
			c-0.1,0-0.3-0.1-0.3-0.1c0,0-0.2-0.1-0.3-0.1c-0.1,0-0.2-0.1-0.3-0.2c0-0.1-0.1-0.1-0.2-0.1c-0.1,0-0.2,0-0.2-0.1
			c-0.1-0.1-0.2-0.1-0.2-0.1c-0.1,0-0.2-0.1-0.2-0.1c0,0-0.1-0.1-0.3-0.1c-0.1,0-0.2-0.1-0.2-0.1s-0.1-0.1-0.1-0.1
			c-0.1,0-0.2-0.1-0.3-0.1c-0.1-0.1-0.2-0.1-0.3-0.1c0,0-0.1,0-0.1-0.1c0,0-0.1-0.1-0.2-0.2s-0.2-0.1-0.2-0.2c0-0.1-0.1-0.1-0.1-0.1
			c0,0-0.1,0-0.2-0.1c-0.1-0.1-0.1-0.1-0.1-0.1c0,0-0.1-0.1-0.2-0.1s-0.2-0.1-0.2-0.1c0,0-0.1-0.1-0.2-0.1s-0.2-0.1-0.2-0.1
			s-0.1,0-0.1-0.1s-0.1-0.1-0.1-0.1c-0.1,0-0.6-0.4-1.2-0.9c-0.1-0.1-0.2-0.1-0.2-0.2c-0.1,0-0.1-0.1-0.1-0.1s0-0.1-0.1-0.1
			c-0.1,0-0.1,0-1.3-1.2c-1.3-1.2-1.3-1.2-1.3-1.3c0,0,0-0.1-0.1-0.1s-0.1,0-0.1-0.1c0-0.1-0.2-0.2-0.3-0.4l-0.3-0.3l0,0.6
			c0,0.5,0,0.7,0.1,0.8c0,0.1,0.1,0.3,0.1,0.6c0,0.3,0.1,0.4,0.2,0.5c0.1,0,0.1,0.2,0.1,0.3c0,0.1,0.1,0.2,0.1,0.3
			c0,0,0.1,0.2,0.1,0.3c0,0.1,0.1,0.3,0.2,0.3c0.1,0.1,0.1,0.2,0.1,0.2c0,0.1,0.1,0.1,0.1,0.1c0,0,0.1,0.1,0.1,0.2
			c0,0.1,0.1,0.2,0.2,0.3c0.2,0.2,0.4,0.5,0.4,0.6c0,0,0,0.1,0.1,0.1c0.1,0,0.1,0.1,0.1,0.1c0,0.1,0.1,0.1,0.1,0.2
			c0.1,0,0.1,0.1,0.1,0.1c0,0,0.1,0.1,0.1,0.2c0.1,0.1,0.2,0.2,0.3,0.3c0.1,0.1,0.2,0.2,0.3,0.3c0.1,0.1,0.1,0.2,0.1,0.2
			c0,0,0.1,0.1,0.1,0.1c0.1,0,0.1,0.1,0.1,0.2c0,0,0.1,0.1,0.1,0.1c0.1,0,0.1,0.1,0.1,0.1c0,0.1,0.1,0.1,0.1,0.1
			c0.1,0,0.1,0,0.1,0.1c0,0,0.1,0.1,0.2,0.2c0.2,0.2,0.2,0.2,0.1,0.3c-0.1,0.1-0.2,0.1-0.3,0c0-0.1-0.2-0.1-0.3-0.1
			c-0.1,0-0.3-0.1-0.3-0.1c0,0-0.1-0.1-0.2-0.1c-0.1,0-0.2-0.1-0.2-0.1c0,0-0.1-0.1-0.2-0.1c-0.1,0-0.2-0.1-0.3-0.2
			c-0.1-0.1-0.2-0.1-0.2-0.1c0,0-0.1,0-0.1-0.1s-0.1-0.1-0.2-0.1c-0.1,0-0.2-0.1-0.2-0.1c0-0.1-0.1-0.1-0.1-0.1s-0.1-0.1-0.2-0.1
			c-0.1-0.1-0.2-0.1-0.3-0.2c-0.3-0.2-0.5-0.3-0.5-0.4c0,0-0.1-0.1-0.2-0.1c-0.1,0-0.3-0.2-0.6-0.4c-0.1-0.1-0.2-0.1-0.2-0.1
			c0,0-0.1,0-0.2-0.1c-0.1-0.1-0.2-0.1-0.2-0.2c0,0-0.1-0.1-0.1-0.1c0,0-0.2-0.1-0.3-0.2s-0.2-0.2-0.2-0.2s-0.1-0.1-0.1-0.1
			c-0.1,0-0.1-0.1-0.1-0.1c0-0.1-0.1-0.1-0.1-0.1s-0.1-0.1-0.1-0.1c0-0.1-0.1-0.1-0.1-0.1c0,0-0.1,0-0.1-0.1c0-0.1-0.1-0.2-0.2-0.2
			c-0.4-0.4-0.8-0.9-0.9-1.1c0-0.1-0.1-0.2-0.2-0.2c-0.2-0.2-0.3-0.4-0.4-0.6c0-0.1-0.1-0.1-0.1-0.1s-0.1-0.1-0.2-0.2
			c-0.1-0.1-0.1-0.2-0.2-0.3c0,0-0.1-0.1-0.1-0.2c0-0.1-0.1-0.2-0.1-0.3c-0.1,0-0.1-0.1-0.1-0.2c0-0.1-0.1-0.2-0.1-0.2
			c0,0-0.1-0.2-0.1-0.3c0-0.1-0.1-0.3-0.2-0.4c-0.1-0.1-0.1-0.2-0.1-0.3c0-0.1-0.1-0.2-0.1-0.3c0,0-0.1-0.3-0.1-0.5
			c0-0.2-0.1-0.4-0.1-0.4c0,0-0.1-0.2-0.1-0.4c0-0.2-0.1-0.4-0.1-0.5c-0.1-0.1-0.1-0.4-0.2-0.8c0-0.4-0.1-0.8-0.2-0.9
			c-0.2-0.4-0.3-4.7-0.1-5c0.1-0.1,0.1-0.4,0.1-0.8c0-0.5,0-0.7,0.1-0.8c0,0,0.1-0.2,0.1-0.4c0-0.3,0.1-0.6,0.2-0.6
			c0,0,0.1-0.1,0.1-0.3c0-0.2,0.1-0.4,0.1-0.5c0-0.1,0.1-0.3,0.1-0.4c0-0.1,0.1-0.2,0.1-0.3c0,0,0.1-0.1,0.1-0.2
			c0-0.1,0.1-0.2,0.1-0.3c0-0.1,0.1-0.2,0.1-0.3c0-0.1,0.1-0.2,0.1-0.2c0,0,0.1-0.1,0.1-0.2c0-0.1,0.1-0.2,0.1-0.2
			c0,0,0.1-0.1,0.1-0.1c0,0,0-0.1,0.1-0.2c0.1-0.1,0.2-0.2,0.2-0.3c0-0.1,0.1-0.2,0.1-0.2c0,0,0.1-0.1,0.1-0.1
			c0-0.1,0.1-0.2,0.2-0.2c0.1-0.1,0.2-0.2,0.2-0.2c0.1-0.1,0.1-0.1,0.1-0.1c0-0.1,1.2-1.3,1.6-1.7c0.2-0.2,0.4-0.3,0.4-0.4
			c0.1-0.1,0.1-0.1,0.2-0.1c0,0,0.1-0.1,0.2-0.1c0.1-0.1,0.2-0.1,0.3-0.2c0.1,0,0.2-0.1,0.2-0.1c0,0,0.1-0.1,0.2-0.1
			c0.1,0,0.2-0.1,0.2-0.1s0.1-0.1,0.2-0.1c0.1-0.1,0.2-0.1,0.2-0.2s0.1-0.1,0.2-0.1c0.1,0,0.2-0.1,0.2-0.1c0.1-0.1,0.2-0.1,0.2-0.1
			c0.1,0,0.2-0.1,0.2-0.1c0.1-0.1,0.2-0.1,0.3-0.2c0.1,0,0.2-0.1,0.2-0.1c0.1-0.1,0.2-0.1,0.2-0.1c0.1,0,0.2-0.1,0.3-0.1
			c0.1-0.1,0.2-0.1,0.3-0.2c0.1,0,0.2-0.1,0.2-0.1c0,0,0.2-0.1,0.3-0.1c0.2,0,0.3-0.1,0.4-0.2c0.1-0.1,0.2-0.1,0.3-0.1
			c0.1,0,0.2-0.1,0.3-0.1c0,0,0.2-0.1,0.4-0.1c0.2,0,0.4-0.1,0.5-0.2c0.2-0.2,0.9-0.2,1.2,0c0.1,0.1,0.3,0.1,0.4,0.2
			c0.1,0,0.3,0.1,0.3,0.1c0,0,0.2,0.1,0.3,0.1c0.1,0,0.2,0.1,0.3,0.1c0.1,0.1,0.2,0.1,0.4,0.1c0.1,0,0.3,0.1,0.4,0.1
			c0.1,0,0.2,0.1,0.3,0.1c0.1,0,0.3,0.1,0.3,0.1c0.1,0.1,0.2,0.1,0.3,0.1c0.1,0,0.3,0.1,0.4,0.1c0.1,0,0.3,0.1,0.4,0.1
			c0.1,0,0.2,0.1,0.3,0.1c0.1,0,0.3,0.1,0.4,0.1c0.2,0,0.3,0.1,0.4,0.1c0,0,0.1,0.1,0.2,0.1c0.1,0,0.5,0.1,0.5,0.2
			c0,0,0.2,0.1,0.4,0.1c0.2,0,0.4,0.1,0.4,0.1c0,0,0.2,0.1,0.3,0.1c0.1,0,0.3,0.1,0.4,0.1c0.1,0.1,0.3,0.1,0.5,0.1
			c0.2,0,0.4,0.1,0.4,0.1s0.2,0.1,0.3,0.1c0.1,0,0.3,0.1,0.4,0.1c0.1,0.1,0.3,0.1,0.5,0.1c0.2,0,0.5,0.1,0.5,0.1
			c0.1,0,0.2,0.1,0.4,0.1s0.3,0.1,0.4,0.1c0.1,0.1,0.3,0.1,0.6,0.1c0.3,0,0.5,0.1,0.6,0.1c0.1,0,0.3,0.1,0.5,0.1
			c0.3,0,0.5,0.1,0.5,0.1c0.1,0.1,0.3,0.1,0.7,0.1c0.4,0,0.7,0.1,0.8,0.1c0.1,0,0.5,0.1,1,0.1c0.4,0,0.9,0.1,1.1,0.1
			c0.4,0.1,1.7,0.1,2.1-0.1c0.1,0,0.5-0.1,0.8-0.2c0.4,0,0.6-0.1,0.7-0.2c0.1,0,0.3-0.1,0.5-0.1c0.2,0,0.4-0.1,0.4-0.2
			c0.1-0.1,0.2-0.1,0.3-0.1c0.1,0,0.2-0.1,0.2-0.1c0,0,0.1-0.1,0.2-0.2c0.3-0.2,1-0.7,1.1-1c0,0,0.1-0.2,0.1-0.3
			c0.1-0.1,0.1-0.2,0.2-0.3c0.1-0.1,0.1-0.2,0.1-0.3c0-0.1,0-0.2,0.1-0.3c0.1-0.1,0.1-0.3,0.1-0.5c0-0.2,0.1-0.4,0.1-0.5
			c0.1-0.2,0.1-0.5,0-0.7c0-0.1-0.1-0.3-0.2-0.5c0-0.2-0.1-0.5-0.1-0.5c0-0.1-0.1-0.3-0.1-0.5c0-0.2-0.1-0.4-0.1-0.4
			c0,0-0.1-0.2-0.1-0.3s-0.1-0.3-0.2-0.4c-0.1-0.1-0.1-0.2-0.1-0.3c0-0.1-0.1-0.2-0.1-0.3c-0.1,0-0.1-0.1-0.1-0.2
			c0-0.1-0.1-0.2-0.1-0.3c-0.1-0.1-0.1-0.2-0.1-0.3c0-0.1-0.1-0.2-0.1-0.2c-0.1,0-0.1-0.1-0.1-0.2c0-0.1-0.1-0.2-0.1-0.2
			c-0.1-0.1-0.1-0.2-0.1-0.2c0-0.1-0.1-0.2-0.1-0.2c0,0-0.1-0.1-0.1-0.2s-0.1-0.2-0.1-0.2c0,0-0.1-0.1-0.1-0.2
			c-0.1-0.2-0.2-0.3-0.4-0.5c-0.1-0.1-0.1-0.2-0.2-0.2c0-0.1-0.1-0.1-0.1-0.1c0,0-0.1-0.1-0.2-0.1c-0.1-0.2-2.1-2-2.2-2.1
			c-0.1,0-0.1-0.1-0.1-0.1c0,0-0.1-0.1-0.1-0.1c-0.1,0-0.2-0.1-0.3-0.3c-0.1-0.1-0.2-0.2-0.3-0.2c0,0-0.1-0.1-0.2-0.1
			c-0.1-0.1-0.2-0.2-0.3-0.2c-0.1,0-0.1-0.1-0.1-0.1c0,0-0.1-0.1-0.1-0.1c-0.1,0-0.2-0.1-0.2-0.1c0-0.1-0.1-0.1-0.1-0.1
			c0,0-0.1,0-0.2-0.1c-0.1-0.1-0.2-0.1-0.2-0.2c-0.1-0.1-0.2-0.1-0.5-0.3c-0.1-0.1-0.2-0.1-0.3-0.2c-0.1,0-0.2-0.1-0.2-0.1
			c0,0,0-0.1-0.1-0.1c0,0-0.1-0.1-0.2-0.1c-0.1-0.1-0.2-0.1-0.3-0.2c-0.1,0-0.2-0.1-0.4-0.2c-0.1-0.1-0.3-0.2-0.5-0.3
			c-0.1-0.1-0.2-0.1-0.2-0.1c0,0-0.1-0.1-0.1-0.1c-0.1,0-0.2-0.1-0.3-0.2c-0.1-0.1-0.2-0.1-0.2-0.1c0,0-0.2-0.1-0.3-0.1
			c-0.1-0.1-0.2-0.1-0.2-0.1c0,0-0.1,0-0.2-0.1c-0.1-0.1-0.2-0.1-0.3-0.1c-0.1,0-0.2-0.1-0.3-0.1c0,0-0.1-0.1-0.2-0.1
			c-0.1,0-0.2-0.1-0.2-0.1c0,0-0.1-0.1-0.2-0.1c-0.2,0-0.4-0.1-0.4-0.2c0,0-0.1-0.1-0.2-0.1c-0.1,0-0.2-0.1-0.3-0.1
			c-0.1-0.1-0.2-0.1-0.3-0.1c-0.1,0-0.3-0.1-0.3-0.1c0,0-0.2-0.1-0.3-0.1c-0.1,0-0.2-0.1-0.3-0.1c0,0-0.2-0.1-0.4-0.1
			c-0.2,0-0.3-0.1-0.4-0.1c0,0-0.2-0.1-0.3-0.1c-0.1,0-0.3-0.1-0.3-0.1c-0.1-0.1-0.2-0.1-0.4-0.1c-0.2,0-0.4-0.1-0.5-0.1
			c-0.1,0-0.4-0.1-0.5-0.1c-0.2,0-0.4-0.1-0.4-0.1c-0.1-0.1-0.3-0.1-0.6-0.1c-0.3,0-0.6-0.1-0.7-0.1c-0.1,0-0.5-0.1-0.8-0.1
			c-0.4,0-0.7-0.1-0.8-0.1c-0.1-0.1-0.4-0.1-1.9-0.1l-1.7,0l-0.4-0.4c-0.6-0.5-0.6-0.6-1-0.7c-0.2-0.1-0.3-0.2-0.4-0.3
			c-0.1-0.1-0.2-0.1-0.2-0.1c0,0-0.1,0-0.2-0.1s-0.2-0.1-0.3-0.1c-0.1,0-0.2-0.1-0.2-0.1c0,0-0.2-0.1-0.3-0.1
			c-0.1,0-0.3-0.1-0.4-0.1c-0.1,0-0.3-0.1-0.4-0.1c-0.3,0-0.5-0.1-0.5-0.2C538.5,400.1,535.9,400.1,535.6,400.2"/>
	</g>
	<path class="st73" d="M472.6,587.3c1.3,0.5,1.4,1,0.4,2.9c-1,2-1.2,2.1-2.5,1.6c-1.6-0.6-3.7-1.1-5-1.1c-2.2,0-3.6,0.9-3.5,2
		c0.1,3.9,12.4,1.5,12.6,9.7c0.1,4.1-3.4,7-8.7,7.1c-2.8,0.1-6.3-0.8-8.7-2c-1.2-0.6-1.3-0.9-0.3-2.9c0.9-1.8,1.1-1.9,2.4-1.4
		c2.1,0.8,4.7,1.5,6.4,1.4c2,0,3.3-0.9,3.2-2c-0.1-3.7-12.6-1.7-12.8-9.7c-0.1-4.2,3.4-7.2,8.7-7.3
		C467.2,585.7,470.4,586.4,472.6,587.3z M482.3,577.3L483,608c0,0.5-0.5,1-1.2,1l-3.2,0.1c-0.7,0-1.2-0.5-1.2-0.9l-0.7-30.7
		c0-1.5,0.4-1.7,2.8-1.7C482.2,575.6,482.3,575.8,482.3,577.3z M505.7,594l0.3,13.2c0,0.7-0.5,1.2-1.2,1.2l-3.2,0.1
		c-0.6,0-1.2-0.4-1.2-1.1c0-0.1,0-0.1,0-0.2l0-1.4c-1.7,1.9-4.1,3-6.6,3.1c-4.8,0.1-8.1-2.6-8.2-6.8c-0.1-4.4,3.5-7.5,9-7.6
		c2.1,0,4,0.3,5.6,0.9l0-1.5c-0.1-2.4-2-3.8-5.3-3.8c-1.5,0-3.4,0.7-4.9,1.6c-1.1,0.7-1.4,0.6-2.7-1.2c-1.3-1.8-1.2-2.2-0.1-3
		c2.4-1.6,5.2-2.5,8-2.6C501.5,584.9,505.5,588.2,505.7,594L505.7,594z M491,602c0,1.6,1.4,2.6,3.4,2.5c2.4-0.1,4.6-1.3,5.9-3.3
		l0-2.1c-1.4-0.5-2.8-0.7-4.3-0.7C492.9,598.6,490.9,600.1,491,602L491,602z M527.4,586.1c1.2,0.7,1.2,1,0,3c-1.2,1.9-1.4,2-2.7,1.4
		c-1.2-0.6-2.5-0.9-3.9-0.9c-4.1,0.1-6.7,2.8-6.6,6.8c0.1,4.2,2.9,6.9,6.9,6.9c1.4,0,3.1-0.6,4.3-1.3c1.2-0.7,1.4-0.7,2.7,1.1
		c1.2,1.7,1.1,2.1,0.2,2.8c-1.8,1.3-4.6,2.3-7.1,2.4c-7.5,0.2-12.6-4.5-12.8-11.7c-0.2-7.1,4.7-12,12.3-12.2
		C523,584.4,525.7,585.1,527.4,586.1L527.4,586.1z M552.3,604.5c1,1.2,0.6,1.6-1.7,2.5c-2.4,0.9-2.7,0.9-3.6-0.2l-6.9-8.8l-2.9,3
		l0.1,5.8c0,0.5-0.5,1-1.2,1l-3.2,0.1c-0.7,0-1.2-0.5-1.2-0.9l-0.7-30.7c0-1.5,0.4-1.7,2.8-1.7c2.7-0.1,2.8,0.1,2.8,1.6l0.4,17.5
		l9-9c1-1,1.5-0.9,3.4,0.2c2,1.2,2.2,1.6,1.2,2.5l-6.7,6.8L552.3,604.5L552.3,604.5z M445.8,591.9c-4.6-14.1-10.8-17.2-24.8-12.7
		c-14.1,4.6-17.2,10.8-12.7,24.8c4.6,14.1,10.8,17.2,24.8,12.7C447.2,612.2,450.4,606,445.8,591.9L445.8,591.9z M438.9,601.2
		l-2.7,0.9l1,2.7c0.4,1.1-0.1,2.3-1.2,2.8c-1.1,0.4-2.3-0.1-2.8-1.2c0-0.1,0-0.1-0.1-0.2l-1-2.7l-5.5,2l1,2.7
		c0.4,1.1-0.2,2.3-1.3,2.7c-1.1,0.4-2.3-0.2-2.7-1.3l-1-2.7l-2.6,1c-1.1,0.4-2.3-0.2-2.7-1.3s0.2-2.3,1.3-2.7l2.7-0.9l-1.9-5.3
		l-2.6,1c-1.1,0.4-2.3-0.2-2.7-1.3c-0.4-1.1,0.2-2.3,1.3-2.7l2.7-0.9l-1-2.7c-0.4-1.1,0.2-2.3,1.3-2.7c1.1-0.4,2.3,0.2,2.7,1.3
		l1,2.7l5.5-2l-1-2.7c-0.4-1.1,0.2-2.3,1.3-2.7c1.1-0.4,2.3,0.2,2.7,1.3l1,2.7l2.6-1c1.1-0.4,2.3,0.2,2.7,1.3s-0.2,2.3-1.3,2.7
		l-2.7,1l1.9,5.3l2.6-1c1.1-0.4,2.3,0.2,2.7,1.3C440.5,599.6,440,600.8,438.9,601.2L438.9,601.2L438.9,601.2z M423.4,596.3l1.9,5.3
		l5.5-2l-1.9-5.3L423.4,596.3L423.4,596.3z"/>
	<path class="st71" d="M593.2,598.1c0-2.6-0.4-5.1-1.5-7.5c-0.5-1.1-1.2-2.1-2.1-3c0,0-0.1-0.1-0.1-0.2c0.6-0.1,1.2-0.1,1.8-0.2
		c4.8-0.5,9.2-2.1,13.3-4.6c2-1.2,3.9-2.6,5.4-4.5c1.8-2.3,2.9-4.8,3.7-7.6c0.8-2.7,1.2-5.5,1.4-8.4c0.1-1.7,0.2-3.4,0-5.1
		c-0.5-4.7-2.2-8.9-5.4-12.5c-0.2-0.2-0.3-0.4-0.1-0.7c0.5-1.1,0.6-2.3,0.8-3.5c0.6-3.8-0.2-7.4-1.5-10.9c-0.1-0.2-0.2-0.3-0.5-0.3
		c-0.8,0-1.7,0.1-2.5,0.2c-2.1,0.2-4,0.9-5.8,1.9c-2.2,1.2-4.4,2.5-6.6,3.8c-0.1,0.1-0.3,0.1-0.5,0.1c-3.1-0.8-6.3-1.4-9.6-1.6
		c-2.6-0.2-9.7-0.2-12.3-0.1c-3.5,0.2-6.9,0.8-10.3,1.7c-0.2,0.1-0.4,0-0.6-0.1c-2.6-1.7-5.2-3.2-8-4.4c-2.1-0.9-4.3-1.2-6.6-1.3
		c-0.6,0-0.6,0-0.8,0.5c-0.8,2.3-1.4,4.7-1.6,7.1c-0.1,1.9,0.2,3.7,0.5,5.5c0.1,0.6,0.3,1.2,0.5,1.7c0.1,0.2,0,0.3-0.1,0.5
		c-0.7,0.8-1.4,1.7-2,2.5c-1.9,2.7-2.9,5.7-3.4,8.9c-0.4,2.6-0.3,5.2,0,7.8c0.3,2.7,0.8,5.4,1.6,8.1c0.8,2.5,2,4.8,3.7,6.8
		c1.3,1.5,2.9,2.7,4.5,3.8c3.3,2.1,7,3.6,10.8,4.3c1.4,0.3,4.8,0.7,4.8,0.7s-1.2,8.3-4.3,10.1c-3.4,2-8.7,2.4-12.3-1.2
		c-1.3-1.3-4.4-7.3-8.8-9c-5.6-2.1-6.6,5.2-4,8.9c1.7,2.3,4,4.8,4.9,6.9c2.6,5.6,6.7,8.1,9.7,9c3.9,1.1,10.7-0.1,10.7-0.1l0.4,6.3
		l32.5,0C593.1,618.2,593.2,603.2,593.2,598.1z"/>
</g>
</svg>
