<?xml version="1.0" encoding="utf-8"?>
<!-- Generator: Adobe Illustrator 23.0.1, SVG Export Plug-In . SVG Version: 6.00 Build 0)  -->
<svg version="1.1" id="Layer_1" xmlns="http://www.w3.org/2000/svg" xmlns:xlink="http://www.w3.org/1999/xlink" x="0px" y="0px"
	 viewBox="0 0 1807 507" style="enable-background:new 0 0 1807 507;" xml:space="preserve">
<style type="text/css">
	.st0{display:none;fill:#4167A6;}
	.st1{fill:#FFFFFF;}
	.st2{fill:#AFBDD8;}
</style>
<rect x="2" y="-2" class="st0" width="1808" height="512"/>
<g>
	<g>
		<g>
			<path class="st1" d="M279.05,217.66l58.75-32.92c-9.11-15.71-21.27-28.87-35.96-39.51c-15.71-10.63-32.92-16.21-50.65-16.21
				c-1.14,0-2.26,0.04-3.38,0.07v67.94c0.29-0.04,0.54-0.1,0.84-0.14C261.31,195.38,271.44,202.47,279.05,217.66z"/>
			<path class="st1" d="M298.8,237.78c-7.37-6.06-16.03-10.4-25.57-13.42l-25.13-8.24h0.44c-0.25-0.08-0.48-0.17-0.72-0.25v60.64
				l8.95,2.88c9.97,4.33,14.74,10.83,13.87,19.06c-0.87,9.97-6.06,15.6-16.03,16.9c-2.38,0.37-4.63,0.39-6.79,0.1v57.46
				c0.95,0.02,1.91,0.05,2.89,0.05c20.8,0,38.56-6.49,53.73-19.06c14.74-12.56,22.97-29.46,24.27-50.69v0.43
				C330.86,277.65,320.89,255.55,298.8,237.78z"/>
		</g>
	</g>
	<g>
		<g>
			<path class="st1" d="M65.1,178.47v133.45c4.13-2.43,8.94-3.82,14.08-3.82c5.14,0,9.95,1.4,14.08,3.82V178.47
				c8.24-4.84,13.78-13.79,13.78-24.03c0-15.38-12.47-27.86-27.86-27.86s-27.86,12.47-27.86,27.86
				C51.32,164.68,56.86,173.63,65.1,178.47z M79.18,138.56c8.75,0,15.88,7.12,15.88,15.88s-7.12,15.88-15.88,15.88
				s-15.88-7.12-15.88-15.88S70.42,138.56,79.18,138.56z"/>
		</g>
		<g>
			<path class="st1" d="M428.13,323.53V190.08c-4.13,2.43-8.94,3.82-14.08,3.82c-5.14,0-9.95-1.4-14.08-3.82v133.45
				c-8.24,4.84-13.78,13.79-13.78,24.03c0,15.38,12.47,27.86,27.86,27.86c15.38,0,27.86-12.47,27.86-27.86
				C441.91,337.32,436.37,328.37,428.13,323.53z M414.05,363.44c-8.75,0-15.88-7.12-15.88-15.88s7.12-15.88,15.88-15.88
				c8.75,0,15.88,7.12,15.88,15.88S422.81,363.44,414.05,363.44z"/>
		</g>
		<g>
			<path class="st1" d="M112.94,134.57c2.56,4.45,3.75,9.32,3.72,14.11l115.63-66.62c8.31,4.73,18.82,5.06,27.7-0.06
				c13.33-7.68,17.91-24.71,10.23-38.04c-7.68-13.33-24.71-17.91-38.04-10.23c-8.88,5.12-13.87,14.38-13.95,23.94L102.6,124.28
				C106.76,126.65,110.37,130.12,112.94,134.57z M238.16,44.11c7.58-4.37,17.31-1.75,21.68,5.83c4.37,7.58,1.75,17.31-5.83,21.68
				c-7.58,4.37-17.31,1.75-21.68-5.83C227.95,58.2,230.57,48.48,238.16,44.11z"/>
		</g>
		<g>
			<path class="st1" d="M379.69,367.43c-2.56-4.45-3.76-9.32-3.72-14.11l-115.63,66.62c-8.31-4.73-18.82-5.06-27.7,0.06
				c-13.33,7.68-17.91,24.71-10.23,38.04c7.68,13.33,24.71,17.91,38.04,10.23c8.88-5.12,13.87-14.38,13.95-23.94l115.63-66.62
				C385.87,375.35,382.26,371.88,379.69,367.43z M254.47,457.89c-7.58,4.37-17.31,1.75-21.68-5.83c-4.37-7.58-1.75-17.31,5.83-21.68
				c7.58-4.37,17.31-1.75,21.68,5.83C264.67,443.8,262.06,453.52,254.47,457.89z"/>
		</g>
		<g>
			<path class="st1" d="M106.94,347.66c-0.11-9.56-5.13-18.81-14.02-23.89c-13.35-7.64-30.37-3-38.01,10.35
				c-7.64,13.35-3,30.37,10.35,38.01c8.9,5.09,19.41,4.72,27.7-0.03l115.84,66.25c-0.05-4.79,1.12-9.66,3.67-14.12
				c2.55-4.46,6.15-7.94,10.31-10.32L106.94,347.66z M92.87,355.83c-4.35,7.6-14.06,10.25-21.66,5.9
				c-7.6-4.35-10.25-14.06-5.9-21.66c4.35-7.6,14.06-10.25,21.66-5.9C94.57,338.52,97.22,348.23,92.87,355.83z"/>
		</g>
		<g>
			<path class="st1" d="M386.29,153.74c0.11,9.56,5.13,18.81,14.02,23.89c13.35,7.64,30.37,3,38.01-10.35
				c7.64-13.35,3-30.37-10.35-38.01c-8.9-5.09-19.41-4.72-27.7,0.03L284.42,63.05c0.05,4.79-1.12,9.66-3.67,14.12
				c-2.55,4.46-6.15,7.94-10.31,10.32L386.29,153.74z M400.36,145.57c4.35-7.6,14.06-10.25,21.66-5.9
				c7.6,4.35,10.25,14.06,5.9,21.66c-4.35,7.6-14.06,10.25-21.66,5.9C398.66,162.89,396.01,153.17,400.36,145.57z"/>
		</g>
	</g>
</g>
<g>
	<path class="st2" d="M512.97,322v-8.54h6.13V322H512.97z M512.97,374.81v-44.6h6.13v44.6H512.97z"/>
	<path class="st2" d="M531.04,374.81v-44.6h5.8c0,3.32-0.03,5.97-0.08,7.96c1.33-2.93,3.44-5.21,6.34-6.84
		c2.9-1.63,6.31-2.42,10.24-2.36c6.47,0.06,11.21,1.99,14.22,5.8c3.01,3.81,4.52,8.7,4.52,14.67v25.37h-6.05v-24.12
		c0-5.03-1.19-8.97-3.57-11.81c-2.38-2.85-5.97-4.24-10.78-4.19c-4.59,0.06-8.15,1.4-10.69,4.02c-2.54,2.63-3.81,6.26-3.81,10.9
		v25.2H531.04z"/>
	<path class="st2" d="M587.41,374.81V335.1h-8.79v-4.89h8.79v-16.75h6.05v16.75h9.78v4.89h-9.78v39.71H587.41z"/>
	<path class="st2" d="M650.83,354.25h-40.62c0.17,5.2,2.04,9.26,5.64,12.19c3.59,2.93,7.52,4.37,11.77,4.31
		c3.43,0,6.48-0.8,9.16-2.4c2.68-1.6,4.74-3.87,6.18-6.8h6.38c-2.04,4.75-5.06,8.37-9.04,10.86c-3.76,2.43-7.99,3.65-12.68,3.65
		c-4.92,0-9.22-1.2-12.89-3.61c-3.68-2.4-6.37-5.35-8.08-8.83c-1.71-3.48-2.57-7.16-2.57-11.03c0-6.58,2.25-12.16,6.76-16.75
		c4.5-4.59,10.07-6.88,16.7-6.88c6.52,0,11.96,2.1,16.33,6.3c2.54,2.49,4.42,5.38,5.64,8.66
		C650.72,347.22,651.16,350.66,650.83,354.25z M610.29,349.36h34.49c-0.22-4.03-2.02-7.6-5.39-10.69c-3.37-3.09-7.3-4.59-11.77-4.48
		c-4.7,0-8.69,1.49-11.98,4.48C612.35,341.65,610.57,345.21,610.29,349.36z"/>
	<path class="st2" d="M704.13,330.21v39.46c0,7.46-2.21,13.32-6.63,17.57c-2.21,2.16-4.82,3.84-7.83,5.06
		c-3.01,1.21-6.04,1.82-9.08,1.82c-5.36,0-10-1.35-13.93-4.06c-3.92-2.71-6.63-6.16-8.12-10.36h7.05c1.38,2.43,3.15,4.39,5.31,5.89
		c2.98,2.16,6.27,3.23,9.87,3.23c4.53,0,8.54-1.63,12.02-4.89c3.48-3.26,5.22-7.54,5.22-12.85v-5.72c-1.66,3.26-4.04,5.86-7.13,7.79
		c-3.1,1.93-6.71,2.9-10.86,2.9c-6.85,0-12.45-2.27-16.79-6.8c-4.34-4.53-6.51-10.09-6.51-16.66c0-6.74,2.2-12.37,6.59-16.87
		c4.39-4.5,9.96-6.76,16.7-6.76c4.2,0,7.93,1.01,11.19,3.03c3.26,2.02,5.55,4.49,6.88,7.42v-9.2H704.13z M662.85,352.42v0.08
		c0,4.81,1.62,8.98,4.85,12.52c3.23,3.54,7.58,5.31,13.06,5.31c5.03,0,9.2-1.71,12.52-5.14c3.21-3.43,4.86-7.63,4.97-12.6
		c0-4.37-1.36-8.26-4.06-11.69c-3.21-4.15-7.74-6.22-13.6-6.22c-4.97,0-9.17,1.67-12.6,5.02
		C664.56,343.04,662.85,347.28,662.85,352.42z"/>
	<path class="st2" d="M715.99,374.81v-44.6h5.8v7.3c2.65-5.47,7.41-8.32,14.26-8.54v6.05h-0.58c-4.31,0-7.63,1.33-9.95,3.98
		s-3.48,6.49-3.48,11.52v24.29H715.99z"/>
	<path class="st2" d="M783.97,330.21v44.6h-6.13v-9.2c-1.71,3.32-4.17,5.89-7.38,7.71c-3.21,1.82-6.83,2.74-10.86,2.74
		c-6.96,0-12.56-2.32-16.79-6.96c-4.23-4.64-6.34-10.17-6.34-16.58c0-6.63,2.18-12.21,6.55-16.75c4.37-4.53,9.89-6.8,16.58-6.8
		c4.42,0,8.26,1.06,11.52,3.19c3.26,2.13,5.5,4.6,6.71,7.42v-9.37H783.97z M742.52,352.51v0.08c0.05,2.87,0.69,5.61,1.91,8.21
		c1.21,2.6,3.22,4.84,6.01,6.71c2.79,1.88,6.12,2.82,9.99,2.82c3.81,0,7.14-0.99,9.99-2.98c2.85-1.99,4.88-4.61,6.09-7.88
		c0.99-2.16,1.49-4.5,1.49-7.05c0.11-2.54-0.36-4.92-1.41-7.13c-1.27-3.15-3.36-5.72-6.26-7.71s-6.26-2.98-10.07-2.98
		c-5.08,0-9.31,1.73-12.68,5.18C744.2,343.24,742.52,347.48,742.52,352.51z"/>
	<path class="st2" d="M799.39,374.81V335.1h-8.79v-4.89h8.79v-16.75h6.05v16.75h9.78v4.89h-9.78v39.71H799.39z"/>
	<path class="st2" d="M821.93,322v-8.54h6.13V322H821.93z M821.93,374.81v-44.6h6.13v44.6H821.93z"/>
	<path class="st2" d="M837.27,352.51v-0.08c0-6.41,2.2-11.92,6.59-16.54c4.39-4.61,10.07-6.92,17.04-6.92
		c7.02,0,12.73,2.31,17.12,6.92c4.39,4.62,6.59,10.16,6.59,16.62s-2.2,11.99-6.59,16.58c-4.39,4.59-10.1,6.88-17.12,6.88
		c-6.96,0-12.64-2.29-17.04-6.88C839.47,364.5,837.27,358.97,837.27,352.51z M843.32,352.51v0.08c0,5.03,1.68,9.24,5.06,12.64
		c3.37,3.4,7.54,5.1,12.52,5.1c4.97,0,9.15-1.7,12.52-5.1c3.37-3.4,5.06-7.64,5.06-12.73c0-5.08-1.69-9.33-5.06-12.73
		c-3.37-3.4-7.54-5.1-12.52-5.1c-4.97,0-9.15,1.7-12.52,5.1C845.01,343.18,843.32,347.42,843.32,352.51z"/>
	<path class="st2" d="M893.81,374.81v-44.6h5.8c0,3.32-0.03,5.97-0.08,7.96c1.33-2.93,3.44-5.21,6.34-6.84
		c2.9-1.63,6.31-2.42,10.24-2.36c6.47,0.06,11.21,1.99,14.22,5.8c3.01,3.81,4.52,8.7,4.52,14.67v25.37h-6.05v-24.12
		c0-5.03-1.19-8.97-3.57-11.81c-2.38-2.85-5.97-4.24-10.78-4.19c-4.59,0.06-8.15,1.4-10.69,4.02c-2.54,2.63-3.81,6.26-3.81,10.9
		v25.2H893.81z"/>
	<path class="st2" d="M956.06,365.6l-6.22,15.42h-5.55l5.22-15.42H956.06z"/>
	<path class="st2" d="M1010.94,341.4h-6.05c0-2.32-0.7-4.13-2.11-5.43c-1.41-1.3-3.25-1.95-5.51-1.95c-2.38,0-4.28,0.7-5.72,2.11
		c-1.44,1.41-2.1,3.11-1.99,5.1c0.05,1.99,0.79,3.52,2.2,4.6c1.41,1.08,3.61,2.06,6.59,2.94c1.77,0.5,3.08,0.87,3.94,1.12
		c0.86,0.25,2.03,0.73,3.52,1.45c1.49,0.72,2.6,1.49,3.32,2.32c0.72,0.83,1.39,1.95,2.03,3.36c0.63,1.41,0.98,3.03,1.04,4.85
		c0.17,4.04-1.19,7.41-4.06,10.11c-2.87,2.71-6.44,4.06-10.69,4.06c-3.98,0-7.5-1.23-10.57-3.69c-3.07-2.46-4.63-5.87-4.68-10.24
		h6.05c0.11,2.87,1.08,5.07,2.9,6.59c1.82,1.52,3.95,2.28,6.38,2.28c2.54,0,4.63-0.81,6.26-2.45c1.63-1.63,2.42-3.61,2.36-5.93
		c-0.06-2.43-0.93-4.31-2.61-5.64c-1.69-1.33-4.55-2.57-8.58-3.73c-3.7-1.1-6.54-2.49-8.5-4.15c-1.96-1.66-2.97-4.12-3.03-7.38
		c0-3.87,1.34-6.96,4.02-9.28c2.68-2.32,5.98-3.48,9.91-3.48c2.21,0,4.28,0.39,6.22,1.16c1.93,0.77,3.62,2.13,5.06,4.06
		C1010.06,336.12,1010.83,338.53,1010.94,341.4z"/>
	<path class="st2" d="M1019.4,352.51v-0.08c0-6.41,2.2-11.92,6.59-16.54c4.39-4.61,10.07-6.92,17.04-6.92
		c7.02,0,12.73,2.31,17.12,6.92c4.39,4.62,6.59,10.16,6.59,16.62s-2.2,11.99-6.59,16.58c-4.39,4.59-10.1,6.88-17.12,6.88
		c-6.96,0-12.64-2.29-17.04-6.88C1021.59,364.5,1019.4,358.97,1019.4,352.51z M1025.45,352.51v0.08c0,5.03,1.68,9.24,5.06,12.64
		c3.37,3.4,7.54,5.1,12.52,5.1c4.97,0,9.15-1.7,12.52-5.1c3.37-3.4,5.06-7.64,5.06-12.73c0-5.08-1.69-9.33-5.06-12.73
		c-3.37-3.4-7.54-5.1-12.52-5.1c-4.97,0-9.15,1.7-12.52,5.1C1027.13,343.18,1025.45,347.42,1025.45,352.51z"/>
	<path class="st2" d="M1077.01,374.81V335.1h-6.55v-4.89h6.55v-3.65c0-9.45,5.22-14.18,15.67-14.18v4.89
		c-1.05,0.06-1.8,0.11-2.24,0.17c-0.44,0.06-1.23,0.26-2.36,0.62c-1.13,0.36-1.99,0.84-2.57,1.45c-0.58,0.61-1.13,1.58-1.66,2.9
		c-0.53,1.33-0.79,2.9-0.79,4.73v3.07h9.62v4.89h-9.62v39.71H1077.01z"/>
	<path class="st2" d="M1102.63,374.81V335.1h-8.79v-4.89h8.79v-16.75h6.05v16.75h9.78v4.89h-9.78v39.71H1102.63z"/>
	<path class="st2" d="M1135.46,374.81l-15.5-44.6h6.47l12.27,36.73l10.69-32.75h5.06l10.78,32.75l12.19-36.73h6.38l-15.42,44.6
		h-6.05l-10.53-32.5l-10.36,32.5H1135.46z"/>
	<path class="st2" d="M1233.61,330.21v44.6h-6.13v-9.2c-1.71,3.32-4.17,5.89-7.38,7.71c-3.21,1.82-6.83,2.74-10.86,2.74
		c-6.96,0-12.56-2.32-16.79-6.96c-4.23-4.64-6.34-10.17-6.34-16.58c0-6.63,2.18-12.21,6.55-16.75c4.37-4.53,9.89-6.8,16.58-6.8
		c4.42,0,8.26,1.06,11.52,3.19c3.26,2.13,5.5,4.6,6.71,7.42v-9.37H1233.61z M1192.16,352.51v0.08c0.05,2.87,0.69,5.61,1.91,8.21
		c1.21,2.6,3.22,4.84,6.01,6.71c2.79,1.88,6.12,2.82,9.99,2.82c3.81,0,7.14-0.99,9.99-2.98c2.85-1.99,4.88-4.61,6.09-7.88
		c0.99-2.16,1.49-4.5,1.49-7.05c0.11-2.54-0.36-4.92-1.41-7.13c-1.27-3.15-3.36-5.72-6.26-7.71s-6.26-2.98-10.07-2.98
		c-5.08,0-9.31,1.73-12.68,5.18C1193.85,343.24,1192.16,347.48,1192.16,352.51z"/>
	<path class="st2" d="M1245.55,374.81v-44.6h5.8v7.3c2.65-5.47,7.41-8.32,14.26-8.54v6.05h-0.58c-4.31,0-7.63,1.33-9.95,3.98
		s-3.48,6.49-3.48,11.52v24.29H1245.55z"/>
	<path class="st2" d="M1312.45,354.25h-40.62c0.17,5.2,2.04,9.26,5.64,12.19c3.59,2.93,7.52,4.37,11.77,4.31
		c3.43,0,6.48-0.8,9.16-2.4c2.68-1.6,4.74-3.87,6.18-6.8h6.38c-2.04,4.75-5.06,8.37-9.04,10.86c-3.76,2.43-7.99,3.65-12.68,3.65
		c-4.92,0-9.22-1.2-12.89-3.61c-3.68-2.4-6.37-5.35-8.08-8.83c-1.71-3.48-2.57-7.16-2.57-11.03c0-6.58,2.25-12.16,6.76-16.75
		c4.5-4.59,10.07-6.88,16.7-6.88c6.52,0,11.96,2.1,16.33,6.3c2.54,2.49,4.42,5.38,5.64,8.66
		C1312.34,347.22,1312.78,350.66,1312.45,354.25z M1271.91,349.36h34.49c-0.22-4.03-2.02-7.6-5.39-10.69
		c-3.37-3.09-7.3-4.59-11.77-4.48c-4.7,0-8.69,1.49-11.98,4.48C1273.97,341.65,1272.19,345.21,1271.91,349.36z"/>
	<path class="st2" d="M1330.11,365.6l-6.22,15.42h-5.55l5.22-15.42H1330.11z"/>
	<path class="st2" d="M1395.93,359.72h6.38c-1.49,4.81-4.27,8.73-8.33,11.77c-4.06,3.04-8.72,4.56-13.97,4.56
		c-7.24,0-13.04-2.35-17.41-7.05c-4.37-4.7-6.55-10.2-6.55-16.5c0-6.63,2.24-12.21,6.71-16.75c4.48-4.53,10.08-6.8,16.83-6.8
		c5.19,0,9.91,1.48,14.13,4.44c4.23,2.96,7.09,7.03,8.58,12.23h-6.3c-1.33-3.59-3.51-6.33-6.55-8.21c-3.04-1.88-6.25-2.82-9.62-2.82
		c-4.81,0-9.01,1.69-12.6,5.06c-3.37,3.26-5.06,7.54-5.06,12.85c0,5.2,1.7,9.46,5.1,12.81c3.4,3.34,7.56,5.02,12.48,5.02
		c4.03-0.05,7.47-1.1,10.32-3.15C1392.93,365.14,1394.88,362.65,1395.93,359.72z"/>
	<path class="st2" d="M1408.36,352.51v-0.08c0-6.41,2.2-11.92,6.59-16.54c4.39-4.61,10.07-6.92,17.04-6.92
		c7.02,0,12.73,2.31,17.12,6.92c4.39,4.62,6.59,10.16,6.59,16.62s-2.2,11.99-6.59,16.58c-4.39,4.59-10.1,6.88-17.12,6.88
		c-6.96,0-12.64-2.29-17.04-6.88C1410.56,364.5,1408.36,358.97,1408.36,352.51z M1414.42,352.51v0.08c0,5.03,1.68,9.24,5.06,12.64
		c3.37,3.4,7.54,5.1,12.52,5.1c4.97,0,9.15-1.7,12.52-5.1c3.37-3.4,5.06-7.64,5.06-12.73c0-5.08-1.69-9.33-5.06-12.73
		c-3.37-3.4-7.54-5.1-12.52-5.1c-4.97,0-9.15,1.7-12.52,5.1C1416.1,343.18,1414.42,347.42,1414.42,352.51z"/>
	<path class="st2" d="M1464.9,374.81v-44.6h5.8c0,3.32-0.03,5.97-0.08,7.96c1.33-2.93,3.44-5.21,6.34-6.84
		c2.9-1.63,6.31-2.42,10.24-2.36c6.47,0.06,11.21,1.99,14.22,5.8c3.01,3.81,4.52,8.7,4.52,14.67v25.37h-6.05v-24.12
		c0-5.03-1.19-8.97-3.57-11.81c-2.38-2.85-5.97-4.24-10.78-4.19c-4.59,0.06-8.15,1.4-10.69,4.02c-2.54,2.63-3.81,6.26-3.81,10.9
		v25.2H1464.9z"/>
	<path class="st2" d="M1543.9,341.4h-6.05c0-2.32-0.7-4.13-2.11-5.43c-1.41-1.3-3.25-1.95-5.51-1.95c-2.38,0-4.28,0.7-5.72,2.11
		c-1.44,1.41-2.1,3.11-1.99,5.1c0.05,1.99,0.79,3.52,2.2,4.6c1.41,1.08,3.61,2.06,6.59,2.94c1.77,0.5,3.08,0.87,3.94,1.12
		c0.86,0.25,2.03,0.73,3.52,1.45c1.49,0.72,2.6,1.49,3.32,2.32c0.72,0.83,1.39,1.95,2.03,3.36c0.63,1.41,0.98,3.03,1.04,4.85
		c0.17,4.04-1.19,7.41-4.06,10.11c-2.87,2.71-6.44,4.06-10.69,4.06c-3.98,0-7.5-1.23-10.57-3.69c-3.07-2.46-4.63-5.87-4.68-10.24
		h6.05c0.11,2.87,1.08,5.07,2.9,6.59c1.82,1.52,3.95,2.28,6.38,2.28c2.54,0,4.63-0.81,6.26-2.45c1.63-1.63,2.42-3.61,2.36-5.93
		c-0.06-2.43-0.93-4.31-2.61-5.64c-1.69-1.33-4.55-2.57-8.58-3.73c-3.7-1.1-6.54-2.49-8.5-4.15c-1.96-1.66-2.97-4.12-3.03-7.38
		c0-3.87,1.34-6.96,4.02-9.28c2.68-2.32,5.98-3.48,9.91-3.48c2.21,0,4.28,0.39,6.22,1.16c1.93,0.77,3.62,2.13,5.06,4.06
		C1543.02,336.12,1543.79,338.53,1543.9,341.4z"/>
	<path class="st2" d="M1596.13,330.21v44.6h-5.8v-7.96c-1.27,2.93-3.34,5.21-6.22,6.84c-2.88,1.63-6.3,2.42-10.28,2.36
		c-6.52-0.11-11.29-2.07-14.3-5.89c-3.01-3.81-4.52-8.7-4.52-14.67v-25.28h6.05v24.12c0,5.03,1.17,8.97,3.52,11.81
		c2.35,2.85,5.95,4.24,10.82,4.19c4.64-0.05,8.23-1.4,10.78-4.02c2.54-2.62,3.81-6.26,3.81-10.9v-25.2H1596.13z"/>
	<path class="st2" d="M1608.07,374.81v-61.35h6.13v61.35H1608.07z"/>
	<path class="st2" d="M1629.54,374.81V335.1h-8.79v-4.89h8.79v-16.75h6.05v16.75h9.78v4.89h-9.78v39.71H1629.54z"/>
	<path class="st2" d="M1652.09,322v-8.54h6.13V322H1652.09z M1652.09,374.81v-44.6h6.13v44.6H1652.09z"/>
	<path class="st2" d="M1670.16,374.81v-44.6h5.8c0,3.32-0.03,5.97-0.08,7.96c1.33-2.93,3.44-5.21,6.34-6.84
		c2.9-1.63,6.31-2.42,10.24-2.36c6.47,0.06,11.21,1.99,14.22,5.8c3.01,3.81,4.52,8.7,4.52,14.67v25.37h-6.05v-24.12
		c0-5.03-1.19-8.97-3.57-11.81c-2.38-2.85-5.97-4.24-10.78-4.19c-4.59,0.06-8.15,1.4-10.69,4.02c-2.54,2.63-3.81,6.26-3.81,10.9
		v25.2H1670.16z"/>
	<path class="st2" d="M1767.65,330.21v39.46c0,7.46-2.21,13.32-6.63,17.57c-2.21,2.16-4.82,3.84-7.83,5.06
		c-3.01,1.21-6.04,1.82-9.08,1.82c-5.36,0-10-1.35-13.93-4.06c-3.92-2.71-6.63-6.16-8.12-10.36h7.05c1.38,2.43,3.15,4.39,5.31,5.89
		c2.98,2.16,6.27,3.23,9.87,3.23c4.53,0,8.54-1.63,12.02-4.89c3.48-3.26,5.22-7.54,5.22-12.85v-5.72c-1.66,3.26-4.04,5.86-7.13,7.79
		c-3.1,1.93-6.71,2.9-10.86,2.9c-6.85,0-12.45-2.27-16.79-6.8c-4.34-4.53-6.51-10.09-6.51-16.66c0-6.74,2.2-12.37,6.59-16.87
		c4.39-4.5,9.96-6.76,16.7-6.76c4.2,0,7.93,1.01,11.19,3.03c3.26,2.02,5.55,4.49,6.88,7.42v-9.2H1767.65z M1726.36,352.42v0.08
		c0,4.81,1.62,8.98,4.85,12.52c3.23,3.54,7.58,5.31,13.06,5.31c5.03,0,9.2-1.71,12.52-5.14c3.21-3.43,4.86-7.63,4.97-12.6
		c0-4.37-1.36-8.26-4.06-11.69c-3.21-4.15-7.74-6.22-13.6-6.22c-4.97,0-9.17,1.67-12.6,5.02
		C1728.07,343.04,1726.36,347.28,1726.36,352.42z"/>
</g>
<g>
	<path class="st1" d="M498.72,255.21h34.06c0.51,6.57,2.95,11.21,7.34,13.92c4.39,2.71,8.95,4.06,13.68,4.06
		c5.32,0,9.92-1.59,13.8-4.76c3.71-3.01,5.57-6.72,5.57-11.15c0-5.85-2.2-10.09-6.58-12.72c-4.39-2.63-13.84-6.45-28.36-11.46
		c-0.68-0.33-1.31-0.58-1.9-0.75c-23.13-7.18-34.78-19.52-34.95-37c0-13.68,4.96-24.66,14.88-32.94
		c9.92-8.28,21.97-12.42,36.15-12.42c5.31,0,10.57,0.65,15.79,1.96c5.22,1.31,10.42,3.46,15.6,6.46c5.18,3,9.5,7.43,12.95,13.3
		c3.45,5.87,5.52,12.9,6.19,21.08h-33.32c-0.34-9.88-6.16-14.81-17.47-14.81c-5.32,0-9.46,1.4-12.41,4.2
		c-2.96,2.8-4.43,6.12-4.43,9.96c0.17,7.35,8.23,13.24,24.18,17.67l13.8,4.01c3.2,0.92,7.29,2.57,12.3,4.95
		c5,2.38,8.79,4.95,11.35,7.71c2.56,2.76,4.9,6.39,7,10.9c2.1,4.51,3.15,9.9,3.15,16.16c0,14.1-5.1,25.53-15.3,34.27
		c-10.36,8.84-23.22,13.29-38.55,13.38c-5.9,0-11.74-0.82-17.51-2.47c-5.78-1.65-11.39-4.16-16.83-7.53
		c-5.45-3.38-10-8.19-13.67-14.43C501.57,270.49,499.4,263.31,498.72,255.21z"/>
	<path class="st1" d="M619.6,136.44v-31.65h33.93v31.65H619.6z M619.6,296.74V154.42h33.93v142.32H619.6z"/>
	<path class="st1" d="M666.52,225.58c0-22.49,6.98-40.71,20.94-54.66c13.96-13.95,30.96-20.93,50.99-20.93
		c12.2,0,22.41,2.43,30.64,7.28c8.23,4.86,14.09,10.02,17.59,15.51v-20.77v-47.23h33.93v191.96h-33.3v-20.32
		c-9.63,16.5-25.75,24.75-48.35,24.75c-21.56,0-39.02-7.29-52.39-21.87S666.52,246.82,666.52,225.58z M700.45,225.33v0.25
		c0,12.28,4.12,22.67,12.35,31.18c8.23,8.51,18.79,12.76,31.67,12.76c12.28,0,22.72-4.32,31.33-12.95
		c8.1-8.21,12.16-18.12,12.16-29.71c0-0.68-0.04-1.35-0.12-2.03c0-12.27-4.18-22.52-12.53-30.73c-8.19-8.3-18.38-12.44-30.57-12.44
		c-13.48,0-24.22,4.34-32.24,13.02S700.45,213.56,700.45,225.33z"/>
	<path class="st1" d="M831.58,225.85c0-20.57,7.17-38.35,21.53-53.36c14.35-15,32.08-22.51,53.18-22.51
		c21.44,0,39.17,7.25,53.18,21.75c14.43,14.83,21.65,32.75,21.65,53.73c0,3.67-0.21,7.46-0.64,11.38H865.52
		c0.67,10.93,5.11,19.61,13.29,26.05c8.02,6.27,17.05,9.36,27.1,9.28c0.25,0,0.51,0,0.76,0c15.7,0,27.14-6.41,34.31-19.25h34.95
		c-6.58,15.36-16.17,27.31-28.74,35.83c-11.9,8.27-25.49,12.41-40.77,12.41c-21.44,0-39.27-7.44-53.5-22.32
		C838.69,263.98,831.58,246.31,831.58,225.85z M866.02,210.64h80.66c-0.68-7.64-4.73-14.87-12.16-21.69
		c-7.26-6.65-16.42-9.97-27.48-9.97c-0.25,0-0.55,0-0.89,0c-11.57,0-20.98,3.32-28.24,9.97C870.66,195.6,866.7,202.83,866.02,210.64
		z"/>
</g>
</svg>
