<?xml version="1.0" encoding="utf-8"?>
<!-- Generator: Adobe Illustrator 23.0.1, SVG Export Plug-In . SVG Version: 6.00 Build 0)  -->
<svg version="1.1" id="Layer_1" xmlns="http://www.w3.org/2000/svg" xmlns:xlink="http://www.w3.org/1999/xlink" x="0px" y="0px"
	 viewBox="0 0 1807 507" style="enable-background:new 0 0 1807 507;" xml:space="preserve">
<style type="text/css">
	.st0{display:none;fill:#4167A6;}
	.st1{fill:#FFFFFF;}
	.st2{fill:#AFBDD8;}
	.st3{font-family:'ITCAvantGardeStd-Bk';}
	.st4{font-size:82.9003px;}
	.st5{font-family:'ITCAvantGardeStd-Demi';}
	.st6{font-size:259.3169px;}
	.st7{letter-spacing:-12;}
</style>
<rect x="2" y="-2" class="st0" width="1808" height="512"/>
<g>
	<g>
		<g>
			<path class="st1" d="M279.05,217.66l58.75-32.92c-9.11-15.71-21.27-28.87-35.96-39.51c-15.71-10.63-32.92-16.21-50.65-16.21
				c-1.14,0-2.26,0.04-3.38,0.07v67.94c0.29-0.04,0.54-0.1,0.84-0.14C261.31,195.38,271.44,202.47,279.05,217.66z"/>
			<path class="st1" d="M298.8,237.78c-7.37-6.06-16.03-10.4-25.57-13.42l-25.13-8.24h0.44c-0.25-0.08-0.48-0.17-0.72-0.25v60.64
				l8.95,2.88c9.97,4.33,14.74,10.83,13.87,19.06c-0.87,9.97-6.06,15.6-16.03,16.9c-2.38,0.37-4.63,0.39-6.79,0.1v57.46
				c0.95,0.02,1.91,0.05,2.89,0.05c20.8,0,38.56-6.49,53.73-19.06c14.74-12.56,22.97-29.46,24.27-50.69v0.43
				C330.86,277.65,320.89,255.55,298.8,237.78z"/>
		</g>
	</g>
	<g>
		<g>
			<path class="st1" d="M65.1,178.47v133.45c4.13-2.43,8.94-3.82,14.08-3.82c5.14,0,9.95,1.4,14.08,3.82V178.47
				c8.24-4.84,13.78-13.79,13.78-24.03c0-15.38-12.47-27.86-27.86-27.86s-27.86,12.47-27.86,27.86
				C51.32,164.68,56.86,173.63,65.1,178.47z M79.18,138.56c8.75,0,15.88,7.12,15.88,15.88s-7.12,15.88-15.88,15.88
				s-15.88-7.12-15.88-15.88S70.42,138.56,79.18,138.56z"/>
		</g>
		<g>
			<path class="st1" d="M428.13,323.53V190.08c-4.13,2.43-8.94,3.82-14.08,3.82c-5.14,0-9.95-1.4-14.08-3.82v133.45
				c-8.24,4.84-13.78,13.79-13.78,24.03c0,15.38,12.47,27.86,27.86,27.86c15.38,0,27.86-12.47,27.86-27.86
				C441.91,337.32,436.37,328.37,428.13,323.53z M414.05,363.44c-8.75,0-15.88-7.12-15.88-15.88s7.12-15.88,15.88-15.88
				c8.75,0,15.88,7.12,15.88,15.88S422.81,363.44,414.05,363.44z"/>
		</g>
		<g>
			<path class="st1" d="M112.94,134.57c2.56,4.45,3.75,9.32,3.72,14.11l115.63-66.62c8.31,4.73,18.82,5.06,27.7-0.06
				c13.33-7.68,17.91-24.71,10.23-38.04c-7.68-13.33-24.71-17.91-38.04-10.23c-8.88,5.12-13.87,14.38-13.95,23.94L102.6,124.28
				C106.76,126.65,110.37,130.12,112.94,134.57z M238.16,44.11c7.58-4.37,17.31-1.75,21.68,5.83c4.37,7.58,1.75,17.31-5.83,21.68
				c-7.58,4.37-17.31,1.75-21.68-5.83C227.95,58.2,230.57,48.48,238.16,44.11z"/>
		</g>
		<g>
			<path class="st1" d="M379.69,367.43c-2.56-4.45-3.76-9.32-3.72-14.11l-115.63,66.62c-8.31-4.73-18.82-5.06-27.7,0.06
				c-13.33,7.68-17.91,24.71-10.23,38.04c7.68,13.33,24.71,17.91,38.04,10.23c8.88-5.12,13.87-14.38,13.95-23.94l115.63-66.62
				C385.87,375.35,382.26,371.88,379.69,367.43z M254.47,457.89c-7.58,4.37-17.31,1.75-21.68-5.83c-4.37-7.58-1.75-17.31,5.83-21.68
				c7.58-4.37,17.31-1.75,21.68,5.83C264.67,443.8,262.06,453.52,254.47,457.89z"/>
		</g>
		<g>
			<path class="st1" d="M106.94,347.66c-0.11-9.56-5.13-18.81-14.02-23.89c-13.35-7.64-30.37-3-38.01,10.35
				c-7.64,13.35-3,30.37,10.35,38.01c8.9,5.09,19.41,4.72,27.7-0.03l115.84,66.25c-0.05-4.79,1.12-9.66,3.67-14.12
				c2.55-4.46,6.15-7.94,10.31-10.32L106.94,347.66z M92.87,355.83c-4.35,7.6-14.06,10.25-21.66,5.9
				c-7.6-4.35-10.25-14.06-5.9-21.66c4.35-7.6,14.06-10.25,21.66-5.9C94.57,338.52,97.22,348.23,92.87,355.83z"/>
		</g>
		<g>
			<path class="st1" d="M386.29,153.74c0.11,9.56,5.13,18.81,14.02,23.89c13.35,7.64,30.37,3,38.01-10.35
				c7.64-13.35,3-30.37-10.35-38.01c-8.9-5.09-19.41-4.72-27.7,0.03L284.42,63.05c0.05,4.79-1.12,9.66-3.67,14.12
				c-2.55,4.46-6.15,7.94-10.31,10.32L386.29,153.74z M400.36,145.57c4.35-7.6,14.06-10.25,21.66-5.9
				c7.6,4.35,10.25,14.06,5.9,21.66c-4.35,7.6-14.06,10.25-21.66,5.9C398.66,162.89,396.01,153.17,400.36,145.57z"/>
		</g>
	</g>
</g>
<text transform="matrix(1 0 0 1 507.001 374.8071)" class="st2 st3 st4">integration, software, consulting</text>
<text transform="matrix(1 0 0 1 491 296.7397)" class="st1 st5 st6 st7">side</text>
</svg>
